<svg width="47" height="49" viewBox="0 0 47 49" fill="none" xmlns="http://www.w3.org/2000/svg">
<path d="M27.0061 14.1563L16.0217 18.651H9.36445C8.7092 18.651 8.17773 19.1823 8.17773 19.8376V29.1625C8.17773 29.8178 8.7092 30.349 9.36445 30.349H16.0217L27.0061 34.8434C27.1503 34.9027 27.3033 34.9319 27.4552 34.9319C27.6873 34.9319 27.9181 34.8638 28.1169 34.7307C28.4448 34.5102 28.6419 34.1408 28.6419 33.7451L28.6419 15.2546C28.6419 14.8591 28.4448 14.4897 28.1169 14.2692C27.7884 14.0484 27.3711 14.0067 27.0061 14.1563ZM10.5512 21.0243H15.0684L15.0684 27.9758H10.5512V21.0243ZM26.2685 31.9773L17.4419 28.3659V20.6344L26.2685 17.0225L26.2685 31.9773Z" fill="white"/>
<path d="M32.4199 45.1677C29.8953 46.136 27.2304 46.6267 24.4995 46.6267C12.2993 46.6267 2.37353 36.7013 2.37353 24.5007C2.37353 12.3001 12.2993 2.37428 24.4995 2.37428C27.3062 2.37428 30.04 2.89208 32.6254 3.91329C33.2345 4.15514 33.9241 3.85526 34.1652 3.24576C34.406 2.63615 34.1069 1.9468 33.4974 1.7059C30.6333 0.574357 27.6057 0.000854492 24.4994 0.000854492C10.9904 0.000854492 0 10.9913 0 24.5007C0 38.0099 10.9904 49 24.4994 49C27.5217 49 30.4728 48.4563 33.2698 47.3832C33.8815 47.1486 34.187 46.4627 33.9521 45.8503C33.7179 45.2387 33.0323 44.9322 32.4199 45.1677Z" fill="white"/>
<path d="M36 20L46 30M46 20L36 30" stroke="white" stroke-width="2" stroke-linecap="round" stroke-linejoin="round"/>
</svg>
