<svg width="49" height="50" viewBox="0 0 49 50" fill="none" xmlns="http://www.w3.org/2000/svg">
<path d="M27.0061 15.0729L16.0217 19.5676H9.36445C8.7092 19.5676 8.17773 20.0989 8.17773 20.7542V30.0792C8.17773 30.7344 8.7092 31.2657 9.36445 31.2657H16.0217L27.0061 35.7601C27.1503 35.8194 27.3033 35.8485 27.4552 35.8485C27.6873 35.8485 27.9181 35.7804 28.1169 35.6473C28.4448 35.4268 28.6419 35.0574 28.6419 34.6618L28.6419 16.1712C28.6419 15.7757 28.4448 15.4064 28.1169 15.1858C27.7884 14.965 27.3711 14.9233 27.0061 15.0729ZM10.5512 21.941H15.0684L15.0684 28.8924H10.5512V21.941ZM26.2685 32.8939L17.4419 29.2825V21.5511L26.2685 17.9391L26.2685 32.8939Z" fill="white"/>
<path d="M32.2188 34.6928C32.4506 34.9245 32.7543 35.0403 33.058 35.0403C33.3614 35.0403 33.6657 34.9245 33.8969 34.6928C39.0124 29.5781 39.0124 21.2554 33.8969 16.1405C33.4341 15.6769 32.6817 15.6769 32.2189 16.1405C31.7552 16.6037 31.7552 17.3552 32.2189 17.8186C36.4081 22.0082 36.4081 28.8249 32.2189 33.0146C31.7552 33.4779 31.7552 34.2295 32.2188 34.6928Z" fill="white"/>
<path d="M38.0769 11.9617C37.6138 11.498 36.8618 11.498 36.3987 11.9617C35.9351 12.4249 35.9351 13.1764 36.3987 13.6398C42.8926 20.1335 42.8926 30.7 36.3987 37.1937C35.9351 37.657 35.9351 38.4087 36.3987 38.8719C36.6304 39.1036 36.9342 39.2195 37.2378 39.2195C37.5414 39.2195 37.8456 39.1036 38.0769 38.8719C45.496 31.4525 45.496 19.3807 38.0769 11.9617Z" fill="white"/>
<path d="M41.859 8.17888C41.3954 7.7154 40.6439 7.7154 40.1809 8.17888C39.7174 8.64215 39.7174 9.39365 40.1809 9.85703C44.3371 14.0131 46.6266 19.5389 46.6266 25.4163C46.6266 31.2942 44.3371 36.8199 40.1809 40.9761C39.7174 41.4393 39.7174 42.191 40.1809 42.6541C40.4127 42.8858 40.7163 43.0016 41.02 43.0016C41.3236 43.0016 41.6272 42.8857 41.859 42.6541C46.4638 38.0499 49 31.9281 49 25.4163C49 18.9049 46.4638 12.7831 41.859 8.17888Z" fill="white"/>
<path d="M32.4199 46.0844C29.8953 47.0526 27.2304 47.5433 24.4995 47.5433C12.2993 47.5433 2.37353 37.6179 2.37353 25.4173C2.37353 13.2167 12.2993 3.29091 24.4995 3.29091C27.3062 3.29091 30.04 3.80871 32.6254 4.82992C33.2345 5.07177 33.9241 4.77189 34.1652 4.16238C34.406 3.55277 34.1069 2.86343 33.4974 2.62253C30.6333 1.49098 27.6057 0.91748 24.4994 0.91748C10.9904 0.91748 0 11.9079 0 25.4173C0 38.9265 10.9904 49.9166 24.4994 49.9166C27.5217 49.9166 30.4728 49.3729 33.2698 48.2998C33.8815 48.0653 34.187 47.3793 33.9521 46.7669C33.7179 46.1553 33.0323 45.8489 32.4199 46.0844Z" fill="white"/>
</svg>
