<svg width="222" height="103" viewBox="0 0 222 103" fill="none" xmlns="http://www.w3.org/2000/svg">
<path fill-rule="evenodd" clip-rule="evenodd" d="M49.8844 89.4632C57.2181 88.8701 64.1019 85.6884 69.3055 80.4868C74.5091 75.2851 77.6934 68.4026 78.2893 61.0691H59.6184C59.1285 63.4671 57.9447 65.6681 56.2141 67.3987C54.4835 69.1294 52.2824 70.3132 49.8844 70.803V89.4632Z" fill="#003A54"/>
<path d="M148.978 51.8462L156.046 51.8141L147.591 27.9582H139.48L130.99 51.8141H138.072L143.539 33.6506L148.978 51.8462ZM199.959 51.8462V27.9903H206.642V38.0172L213.828 27.9903H221.661L212.623 39.5466L221.914 51.8498H213.56L206.645 41.5978V51.8498L199.959 51.8462ZM174.367 27.9903H180.817V42.3089L190.036 27.9903H196.59V51.8462H190.158V37.5527L180.913 51.8462H174.37L174.367 27.9903ZM158.644 51.8462V33.7185H153.409V28.001H170.586V33.7185H165.323V51.8462H158.644ZM118.647 33.6827L115.921 42.4732H121.37L118.647 33.6827ZM106.097 51.8462L114.577 27.9903H122.692L131.154 51.8462H123.986L122.692 47.7333H114.577L113.262 51.8462H106.097ZM93.3261 47.0758H96.1848C97.2818 47.0758 98.1108 46.8828 98.6861 46.504C99.2614 46.1252 99.5402 45.4642 99.5402 44.5529C99.5402 43.6417 99.2615 43.0235 98.7004 42.6519C98.1394 42.2803 97.3175 42.073 96.1991 42.073H93.3404L93.3261 47.0758ZM86.6581 51.8462V27.9903H104.289V33.7077H93.3261V37.2811H96.8423C98.132 37.2889 99.4181 37.4181 100.684 37.667C102.1 37.9568 103.406 38.6391 104.454 39.636C105.645 40.6961 106.233 42.297 106.219 44.4386C106.219 47.5879 105.193 49.6129 103.142 50.5133C101.157 51.3846 99.0135 51.8359 96.8458 51.8391L86.6581 51.8462Z" fill="#003A54"/>
<path fill-rule="evenodd" clip-rule="evenodd" d="M86.8546 61.087V89.5419H221.728V61.087H86.8546ZM116.353 83.9388H111.568V70.9388H105.911V83.9388H101.123V66.8509H116.356L116.353 83.9388ZM141.724 83.5457L137.825 70.5064L133.916 83.5243H128.845L134.92 66.4292H140.72L146.795 83.5243L141.724 83.5457ZM183.954 78.7752C183.574 79.8452 182.989 80.8307 182.232 81.6768C181.433 82.5544 180.448 83.2419 179.348 83.6887C176.655 84.7242 173.662 84.6614 171.015 83.5136C169.728 82.952 168.606 82.0699 167.756 80.9514C166.928 79.8445 166.432 78.5244 166.327 77.1458H164.494V83.9352H159.698V66.8509H164.479V73.3937H166.337C166.47 72.4438 166.762 71.5232 167.202 70.6708C167.648 69.8171 168.255 69.0576 168.989 68.4339C169.788 67.7547 170.712 67.2366 171.708 66.908C172.883 66.5238 174.114 66.3378 175.349 66.3577C177.117 66.3072 178.865 66.7462 180.399 67.6263C181.728 68.4216 182.802 69.5794 183.497 70.9638C184.177 72.3363 184.525 73.849 184.515 75.3805C184.52 76.535 184.333 77.6823 183.961 78.7752H183.954ZM207.453 72.504C206.266 71.1389 204.923 70.4528 203.393 70.4528C202.587 70.4401 201.795 70.6597 201.11 71.0853C200.435 71.5124 199.898 72.1254 199.563 72.8506C199.197 73.6332 199.014 74.4884 199.027 75.352C199.011 76.1688 199.191 76.9775 199.552 77.7104C199.892 78.3932 200.419 78.9656 201.071 79.3613C201.776 79.7729 202.581 79.9818 203.397 79.9652C204.891 79.9652 206.256 79.3541 207.456 78.107V82.9668C206.08 83.851 204.467 84.2947 202.832 84.239C201.638 84.2478 200.452 84.027 199.341 83.5886C198.283 83.1789 197.325 82.5471 196.532 81.7359C195.739 80.9247 195.128 79.9529 194.742 78.886C194.3 77.71 194.081 76.4618 194.095 75.2054C194.075 73.9134 194.31 72.63 194.785 71.4284C195.198 70.3719 195.826 69.4132 196.631 68.6133C197.435 67.8135 198.397 67.1901 199.455 66.783C200.513 66.3807 201.636 66.1772 202.768 66.1827C203.592 66.182 204.412 66.2938 205.205 66.515C206.01 66.7272 206.773 67.0765 207.46 67.5477L207.453 72.504Z" fill="#003A54"/>
<path fill-rule="evenodd" clip-rule="evenodd" d="M177.472 71.021C176.828 70.65 176.098 70.4548 175.355 70.4548C174.612 70.4548 173.882 70.65 173.238 71.021C172.57 71.4197 172.031 72.0012 171.683 72.6969C171.279 73.5322 171.083 74.4529 171.111 75.3805C171.078 76.3162 171.277 77.2456 171.69 78.0856C172.032 78.781 172.57 79.3611 173.238 79.7543C173.88 80.1316 174.612 80.3279 175.357 80.3225C175.922 80.3301 176.482 80.2174 177 79.9919C177.518 79.7664 177.982 79.4333 178.362 79.0146C179.187 78.1535 179.598 76.9492 179.598 75.3769C179.622 74.4483 179.425 73.5272 179.023 72.6898C178.675 71.9978 178.137 71.419 177.472 71.021Z" fill="#003A54"/>
<path fill-rule="evenodd" clip-rule="evenodd" d="M11.7886 102.277L3.89862 94.3802L7.21473 91.0641C7.6678 90.5825 8.21517 90.1994 8.82275 89.9385C9.30832 89.7357 9.83412 89.6476 10.3593 89.6812C10.8216 89.7224 11.2718 89.8522 11.685 90.0636C12.0705 90.2617 12.4245 90.5158 12.7356 90.8176C13.039 91.1272 13.2933 91.4815 13.4896 91.8681C13.7177 92.3065 13.8477 92.7893 13.8705 93.2829C13.8934 93.7766 13.8085 94.2693 13.6218 94.7268C13.3561 95.331 12.9764 95.8782 12.5033 96.3384L11.3956 97.4498L13.9898 100.051L11.7886 102.277ZM7.85791 93.9085L9.6768 95.7274L10.3021 95.0949C11.0168 94.3802 11.0811 93.7013 10.4737 93.0974C9.86618 92.4935 9.20507 92.5614 8.47968 93.2796L7.85791 93.9085ZM16.0767 85.8541L18.0957 89.6669L19.8824 87.8802L16.0767 85.8541ZM17.9456 96.0168L12.8571 85.2967L15.5407 82.6202L26.2287 87.7194L23.8703 90.0815L22.0836 89.1452L19.4 91.8324L20.3254 93.637L17.9456 96.0168ZM30.188 80.126L27.6008 82.706L24.7672 77.2887L30.188 80.126ZM28.1619 89.0595L30.0808 87.1513L28.5121 85.5754L33.0467 81.0408L34.6154 82.6059L36.5343 80.687L34.9621 79.1147L33.0789 77.228L32.3642 77.9427L24.2169 74.0763L21.5297 76.7491L25.4068 84.9072L24.6921 85.6219L28.1619 89.0595ZM28.094 70.2063L30.2202 68.0623L34.9621 72.797L33.2718 65.0106L35.4409 62.8416L43.338 70.7352L41.194 72.8792L36.4593 68.1337L38.1387 75.9273L35.9697 78.0927L28.094 70.2063ZM47.4153 55.852C46.8753 55.852 46.3475 56.0121 45.8985 56.3121C45.4496 56.6121 45.0997 57.0385 44.893 57.5373C44.6864 58.0362 44.6323 58.5851 44.7376 59.1147C44.843 59.6443 45.103 60.1307 45.4848 60.5125C45.8666 60.8943 46.3531 61.1544 46.8827 61.2597C47.4123 61.365 47.9612 61.311 48.46 61.1043C48.9589 60.8977 49.3853 60.5478 49.6852 60.0988C49.9852 59.6499 50.1453 59.122 50.1453 58.5821C50.1454 58.2227 50.0744 57.8668 49.9365 57.5348C49.7986 57.2029 49.5966 56.9015 49.3419 56.6478C49.0873 56.3942 48.785 56.1933 48.4526 56.0567C48.1201 55.9202 47.764 55.8506 47.4045 55.852H47.4153ZM47.4153 50.2775C45.7715 50.2754 44.164 50.761 42.7962 51.6727C41.4285 52.5845 40.362 53.8815 39.7316 55.3997C39.1012 56.9178 38.9354 58.5888 39.255 60.2012C39.5747 61.8136 40.3655 63.295 41.5273 64.4578C42.6892 65.6207 44.1698 66.4127 45.782 66.7338C47.3941 67.0548 49.0652 66.8904 50.5839 66.2613C52.1026 65.6323 53.4005 64.5669 54.3135 63.1999C55.2264 61.8329 55.7134 60.2259 55.7127 58.5821C55.715 57.49 55.5018 56.4083 55.0852 55.3988C54.6686 54.3894 54.0568 53.4721 53.285 52.6996C52.5131 51.9271 51.5964 51.3145 50.5873 50.897C49.5782 50.4796 48.4966 50.2654 47.4045 50.2668L47.4153 50.2775ZM61.5516 55.2803H63.6599C62.9802 51.9529 61.2965 48.9141 58.8358 46.5735C56.3752 44.233 53.2559 42.7034 49.8988 42.191V40.1113C53.801 40.6439 57.4348 42.3969 60.2806 45.1194C63.1264 47.842 65.0384 51.3947 65.7431 55.2696H67.8336C67.1121 50.8397 64.972 46.7638 61.7352 43.6546C58.4984 40.5454 54.3397 38.5709 49.8845 38.028V35.9733C54.8824 36.5289 59.5559 38.7232 63.1758 42.2139C66.7957 45.7045 69.1584 50.2951 69.8954 55.2696H71.9644C71.2212 49.7404 68.6362 44.6231 64.6267 40.7439C60.6172 36.8648 55.4173 34.4502 49.8666 33.89V31.8246C55.9676 32.3912 61.6921 35.0242 66.0927 39.2877C70.4934 43.5512 73.3062 49.1896 74.0656 55.2696H76.1453C75.3744 48.6439 72.3412 42.487 67.5576 37.8382C62.774 33.1894 56.533 30.3333 49.888 29.752V27.6938C57.0804 28.2747 63.8446 31.347 69.0143 36.3811C74.184 41.4151 77.4351 48.0952 78.2071 55.2696H222V57.3385H59.7684L59.5326 55.7127C58.9827 53.3955 57.7826 51.2834 56.0734 49.6249C54.3643 47.9664 52.2171 46.8304 49.8845 46.3504V44.2671C52.6923 44.7556 55.2945 46.0592 57.3671 48.0155C59.4397 49.9718 60.8912 52.4945 61.5409 55.2696L61.5516 55.2803Z" fill="#EF4136"/>
<!-- <path d="M49.6379 3.2804H51.9285V8.10089C52.312 8.10087 52.6822 7.95968 52.9683 7.70425C53.3137 7.15003 53.5909 6.55612 53.7938 5.93542C54.2726 4.70975 54.755 3.94505 55.2231 3.64846C55.6912 3.35186 56.4666 3.20178 57.5315 3.20178H57.8603V4.88485H57.5351C57.1824 4.86526 56.8298 4.92383 56.5024 5.05637C56.285 5.18457 56.1032 5.36516 55.9735 5.58166C55.7511 6.05754 55.5555 6.54547 55.3875 7.04317C55.2754 7.38911 55.1244 7.72119 54.9372 8.033C54.7116 8.34816 54.4123 8.60333 54.0654 8.77626C54.5746 8.92343 55.023 9.23034 55.3446 9.65174C55.7618 10.2386 56.1277 10.8602 56.4381 11.5099L57.9746 14.6152H55.2803L53.926 11.6743C53.9045 11.6385 53.8545 11.5635 53.7866 11.4384C53.7652 11.3991 53.6794 11.224 53.515 10.9131C53.3419 10.5165 53.0999 10.1535 52.8004 9.84113C52.5377 9.69121 52.2377 9.61931 51.9356 9.63387V14.6009H49.6379V3.2804Z" fill="#EF4136"/>
<path d="M60.8869 8.91561L58.9037 8.55827C59.0666 7.85243 59.4758 7.22781 60.0579 6.7966C60.5939 6.4071 61.3979 6.21413 62.4592 6.21413C63.2006 6.17689 63.9413 6.29873 64.6318 6.57147C65.0514 6.75154 65.4048 7.05745 65.6431 7.44695C65.8289 7.80429 65.9218 8.4475 65.9218 9.39087L65.8968 11.9351C65.885 12.47 65.9232 13.0047 66.0111 13.5324C66.0948 13.9139 66.2282 14.2827 66.4078 14.6295H64.2637C64.2101 14.4901 64.1458 14.2721 64.0493 13.9862C64.0171 13.854 63.9922 13.7754 63.9814 13.7325C63.638 14.0754 63.2331 14.3505 62.7879 14.5437C62.3605 14.728 61.8991 14.8205 61.4336 14.8153C61.0714 14.8373 60.7084 14.7874 60.3655 14.6685C60.0227 14.5495 59.7068 14.3638 59.4361 14.122C59.2008 13.8996 59.0155 13.6298 58.8923 13.3304C58.7691 13.0311 58.7108 12.7089 58.7214 12.3854C58.714 11.9457 58.829 11.5127 59.0537 11.1347C59.277 10.7728 59.6029 10.4854 59.9899 10.3092C60.5418 10.0687 61.1217 9.89824 61.7159 9.80181C62.4352 9.69182 63.1423 9.51354 63.8278 9.26938V9.0514C63.8414 8.88848 63.8208 8.72453 63.7672 8.57006C63.7137 8.41559 63.6284 8.27403 63.5169 8.15448C63.1664 7.94169 62.7566 7.8477 62.3484 7.88647C62.0278 7.87156 61.7103 7.95376 61.4372 8.12232C61.1729 8.3204 60.9798 8.5987 60.8869 8.91561ZM63.7956 10.6809C63.5169 10.7738 63.0809 10.8738 62.4627 11.006C62.0532 11.0738 61.6559 11.2014 61.2835 11.3848C61.1535 11.4656 61.0462 11.5782 60.9718 11.712C60.8974 11.8459 60.8583 11.9964 60.8583 12.1495C60.8577 12.2996 60.8894 12.4481 60.951 12.5849C61.0126 12.7217 61.1029 12.8438 61.2156 12.9428C61.3276 13.0538 61.4612 13.1405 61.6081 13.1977C61.755 13.2548 61.9122 13.2812 62.0697 13.2751C62.4774 13.2714 62.8722 13.1318 63.1917 12.8785C63.4431 12.7086 63.6266 12.4556 63.7098 12.1638C63.7883 11.8122 63.8183 11.4515 63.7992 11.0918L63.7956 10.6809Z" fill="#EF4136"/> -->
<!-- <path d="M68.6554 6.39993H75.9416V14.6187H73.769V8.16518H70.8102V11.8601C70.8102 12.7987 70.7018 13.4597 70.485 13.8433C70.3298 14.1593 70.08 14.4191 69.7703 14.5865C69.3628 14.7266 68.9322 14.7872 68.5018 14.7652C68.045 14.7547 67.5898 14.7081 67.1403 14.6259V13.0321H67.4977C67.7335 13.0321 67.905 13.0571 68.0301 13.0571C68.3231 13.0571 68.5053 12.9571 68.5661 12.7677C68.6612 12.2361 68.6936 11.6952 68.6626 11.1561L68.6554 6.39993Z" fill="#EF4136"/>
<path d="M78.082 6.39993H80.1724V11.567L83.5136 6.39993H85.6576V14.6187H83.5636V9.36584L80.1796 14.6187H78.0892L78.082 6.39993Z" fill="#EF4136"/>
<path d="M87.7944 6.39993H89.967V9.41944H93.0794V6.39993H95.2556V14.6187H93.0794V11.1633H89.967V14.6187H87.7944V6.39993Z" fill="#EF4136"/>
<path d="M97.3961 6.39993H99.4794V11.567L102.828 6.39993H104.972V14.6187H102.881V9.36584L99.483 14.6187H97.3997L97.3961 6.39993Z" fill="#EF4136"/>
<path d="M107.109 6.39993H109.281V9.41944H112.386V6.39993H114.577V14.6187H112.386V11.1633H109.281V14.6187H107.109V6.39993Z" fill="#EF4136"/>
<path d="M116.682 6.39993H122.22V8.16161H118.858V14.6223H116.682V6.39993Z" fill="#EF4136"/>
<path d="M123.296 6.39994H125.333V7.61488C125.6 7.19559 125.969 6.85029 126.405 6.61076C126.857 6.34624 127.372 6.20916 127.895 6.21412C128.358 6.21107 128.816 6.3104 129.236 6.50499C129.656 6.69958 130.028 6.98463 130.325 7.33973C130.997 8.09372 131.325 9.12642 131.325 10.4664C131.325 11.8065 130.993 12.9071 130.325 13.6825C130.027 14.0419 129.654 14.3306 129.231 14.5278C128.808 14.7249 128.347 14.8256 127.881 14.8224C127.453 14.8316 127.029 14.7385 126.644 14.5508C126.204 14.3142 125.81 13.9994 125.483 13.6217V17.749H123.3L123.296 6.39994ZM125.44 10.3807C125.44 11.2955 125.629 11.9851 125.983 12.4211C126.142 12.6265 126.346 12.7932 126.578 12.9083C126.811 13.0235 127.067 13.0841 127.327 13.0857C127.571 13.0881 127.812 13.0342 128.032 12.9283C128.252 12.8223 128.445 12.6671 128.595 12.4747C128.928 12.0673 129.092 11.4027 129.092 10.4772C129.092 9.61955 128.924 8.97991 128.577 8.56183C128.426 8.36499 128.231 8.20603 128.008 8.0975C127.785 7.98897 127.539 7.93384 127.291 7.93649C127.038 7.93176 126.788 7.98427 126.558 8.09009C126.329 8.19591 126.126 8.35229 125.965 8.54754C125.578 9.07647 125.395 9.72756 125.451 10.3807H125.44Z" fill="#EF4136"/> -->
<!-- <path d="M134.684 8.91559L132.708 8.55825C132.873 7.85328 133.282 7.2293 133.862 6.79657C134.395 6.40707 135.202 6.21411 136.271 6.21411C137.01 6.17734 137.748 6.29918 138.436 6.57145C138.854 6.75293 139.206 7.05859 139.444 7.44693C139.678 8.06671 139.776 8.72984 139.73 9.39085L139.709 11.9351C139.698 12.4693 139.73 13.0034 139.805 13.5324C139.897 13.9114 140.03 14.2793 140.202 14.6294H138.058C137.976 14.4195 137.908 14.2047 137.854 13.9862C137.818 13.854 137.782 13.7754 137.775 13.7325C137.432 14.0739 137.029 14.3489 136.585 14.5437C136.156 14.7269 135.694 14.8194 135.228 14.8152C134.494 14.8586 133.773 14.6093 133.223 14.122C132.988 13.8993 132.803 13.6295 132.68 13.3301C132.556 13.0308 132.498 12.7089 132.508 12.3853C132.501 11.9452 132.617 11.5118 132.844 11.1347C133.065 10.7743 133.386 10.4872 133.77 10.3092C134.325 10.0693 134.909 9.89883 135.506 9.80178C136.223 9.69419 136.926 9.51585 137.607 9.26935V9.05138C137.623 8.88918 137.604 8.7255 137.553 8.57097C137.501 8.41645 137.417 8.27453 137.307 8.15445C136.955 7.93918 136.542 7.84505 136.132 7.88645C135.808 7.85271 135.482 7.93982 135.219 8.13107C134.955 8.32232 134.771 8.60423 134.702 8.92273L134.684 8.91559ZM137.586 10.6808C137.314 10.7737 136.871 10.8738 136.267 11.006C135.857 11.071 135.459 11.1987 135.088 11.3848C134.957 11.4655 134.849 11.5779 134.774 11.7116C134.698 11.8453 134.658 11.9959 134.656 12.1495C134.657 12.2976 134.687 12.4441 134.746 12.5803C134.804 12.7165 134.889 12.8397 134.995 12.9428C135.111 13.0526 135.247 13.1385 135.396 13.1956C135.545 13.2526 135.704 13.2796 135.864 13.2751C136.273 13.2727 136.669 13.133 136.989 12.8785C137.242 12.7107 137.425 12.4567 137.504 12.1638C137.585 11.8127 137.614 11.4514 137.59 11.0918L137.586 10.6808Z" fill="#EF4136"/>
<path d="M148.656 14.6223H142.428V16.7878H140.663V12.8571H141.552C142.002 12.2886 142.318 11.6269 142.478 10.9203C142.717 10.0412 142.864 8.54756 142.91 6.41068H149.532V12.8428H150.422V16.7735H148.653L148.656 14.6223ZM147.384 12.8356V8.19022H144.758C144.672 10.4557 144.308 12.003 143.686 12.8356H147.384Z" fill="#EF4136"/>
<path d="M161.424 14.6223H159.241V6.43209C158.437 7.17971 157.48 7.74203 156.436 8.07942V6.10334C157.107 5.86062 157.731 5.50534 158.283 5.05277C158.904 4.59027 159.379 3.9589 159.652 3.23392H161.438L161.424 14.6223Z" fill="#EF4136"/>
<path d="M168.353 3.23393C168.844 3.21128 169.334 3.30611 169.781 3.51057C170.229 3.71503 170.621 4.02322 170.926 4.40957C171.669 5.34937 172.026 6.87878 172.026 9.02996C172.026 11.1811 171.647 12.7213 170.915 13.6503C170.612 14.0343 170.221 14.3402 169.775 14.5422C169.329 14.7442 168.842 14.8366 168.353 14.8117C167.838 14.8296 167.327 14.7238 166.862 14.503C166.397 14.2823 165.991 13.9531 165.68 13.5431C165.001 12.6927 164.669 11.1811 164.669 9.00494C164.669 6.82875 165.026 5.3315 165.766 4.39885C166.074 4.01355 166.469 3.70698 166.919 3.50444C167.369 3.3019 167.86 3.20918 168.353 3.23393ZM168.353 5.03848C168.093 5.03116 167.838 5.1188 167.638 5.28505C167.391 5.53109 167.224 5.84629 167.159 6.18911C166.979 7.13075 166.906 8.08975 166.941 9.04782C166.904 9.96858 166.972 10.8906 167.145 11.7958C167.213 12.1653 167.385 12.5076 167.642 12.782C167.842 12.9483 168.096 13.0359 168.356 13.0286C168.608 13.0299 168.852 12.9426 169.046 12.782C169.295 12.5358 169.464 12.221 169.532 11.8779C169.707 10.9452 169.778 9.99619 169.746 9.04782C169.781 8.12861 169.715 7.20838 169.55 6.30347C169.48 5.92813 169.304 5.58076 169.042 5.30292C168.851 5.13586 168.607 5.04215 168.353 5.03848Z" fill="#EF4136"/>
<path d="M173.516 11.7029L175.66 11.4849C175.697 11.9248 175.893 12.3363 176.211 12.6427C176.348 12.7812 176.512 12.8908 176.692 12.9651C176.873 13.0394 177.066 13.0767 177.261 13.075C177.483 13.0755 177.701 13.0263 177.901 12.931C178.101 12.8358 178.276 12.6969 178.415 12.5247C178.766 12.0408 178.934 11.4484 178.891 10.8524C178.932 10.292 178.762 9.73652 178.415 9.29439C178.266 9.12243 178.08 8.98626 177.871 8.89595C177.662 8.80565 177.435 8.76351 177.208 8.77268C176.882 8.77919 176.562 8.85714 176.27 9.00101C175.978 9.14489 175.721 9.35117 175.517 9.60528L173.766 9.34442L174.874 3.44476H180.624V5.47444H176.522L176.182 7.40407C176.824 7.07908 177.554 6.97063 178.262 7.09495C178.971 7.21927 179.62 7.56967 180.113 8.09373C180.794 8.83691 181.153 9.82007 181.11 10.8274C181.125 11.727 180.842 12.6065 180.306 13.3287C179.96 13.8153 179.498 14.2076 178.962 14.4698C178.426 14.732 177.832 14.8556 177.236 14.8296C176.307 14.8716 175.395 14.573 174.671 13.9898C174.004 13.4061 173.59 12.586 173.516 11.7029Z" fill="#EF4136"/>
<path d="M182.757 14.6223V12.4497H184.93V14.6223H182.757Z" fill="#EF4136"/>
<path d="M194.038 12.5998V14.6188H186.42C186.507 13.852 186.759 13.1132 187.159 12.4533C187.86 11.4494 188.682 10.536 189.607 9.73395C190.252 9.16021 190.85 8.53521 191.394 7.86506C191.672 7.48091 191.827 7.02088 191.837 6.54648C191.852 6.34217 191.825 6.13689 191.757 5.94371C191.689 5.75053 191.581 5.57369 191.44 5.42444C191.299 5.2875 191.131 5.18175 190.946 5.11404C190.761 5.04633 190.565 5.01816 190.368 5.03137C190.171 5.02158 189.974 5.05272 189.79 5.12283C189.605 5.19294 189.437 5.3005 189.296 5.43874C188.984 5.82285 188.82 6.30557 188.832 6.8002L186.666 6.58937C186.795 5.39228 187.206 4.5311 187.888 4.01296C188.624 3.46972 189.522 3.19253 190.436 3.22681C191.4 3.17286 192.347 3.49868 193.073 4.13445C193.385 4.41978 193.633 4.76868 193.799 5.15763C193.964 5.54658 194.045 5.96656 194.035 6.38926C194.033 6.8877 193.941 7.38175 193.763 7.84719C193.54 8.36742 193.247 8.85442 192.891 9.29442C192.456 9.81036 191.978 10.2885 191.462 10.7238C190.776 11.3563 190.336 11.7743 190.154 11.9816C189.985 12.1653 189.837 12.3665 189.711 12.5819L194.038 12.5998Z" fill="#EF4136"/>
<path d="M200.406 14.6223V3.2804H208.185V5.19931H202.697V7.87934H207.431V9.79825H202.697V14.6187L200.406 14.6223Z" fill="#EF4136"/>
<path d="M210.04 14.6223V3.2804H213.47L215.525 11.0096L217.562 3.2804H220.992V14.6223H218.866V5.68886L216.618 14.6223H214.407L212.166 5.68886V14.6223H210.04Z" fill="#EF4136"/> -->
<path fill-rule="evenodd" clip-rule="evenodd" d="M44.7173 14.4043V12.3461H30.7811C25.9062 12.3963 21.2452 14.3557 17.7986 17.8037C14.352 21.2516 12.3944 25.9133 12.3461 30.7883V56.0986H14.4007V30.8705C14.4251 26.5109 16.167 22.3366 19.2488 19.2528C22.3306 16.169 26.5037 14.4244 30.8633 14.3972L44.7173 14.4043Z" fill="#003A54"/>
<path fill-rule="evenodd" clip-rule="evenodd" d="M44.7173 6.16766V4.12012H30.7811C23.7079 4.16902 16.9397 7.00662 11.9464 12.0166C6.95316 17.0266 4.13821 23.8043 4.11297 30.8776V56.1057H6.16409V30.8597C6.19976 24.3208 8.81369 18.0599 13.4382 13.4367C18.0627 8.81355 24.3243 6.20145 30.8633 6.16766H44.7173Z" fill="#003A54"/>
<path fill-rule="evenodd" clip-rule="evenodd" d="M44.7173 10.2842V8.22949H30.7811C24.8144 8.28177 19.107 10.676 14.8887 14.8963C10.6705 19.1166 8.27895 24.8251 8.22951 30.7918V56.1021H10.277V30.874C10.3061 25.4235 12.4838 20.2043 16.3373 16.3495C20.1908 12.4946 25.4092 10.3152 30.8597 10.2842H44.7173Z" fill="#003A54"/>
<path fill-rule="evenodd" clip-rule="evenodd" d="M44.9174 27.6902C39.1171 28.1593 33.5659 30.2513 28.8986 33.7268C24.2312 37.2024 20.6362 41.9212 18.5244 47.3438V30.8741C18.5515 27.6071 19.8606 24.4814 22.1698 22.1702C24.479 19.859 27.6035 18.5472 30.8705 18.5173H44.7137V16.4662H30.7775C26.9933 16.5198 23.3791 18.0472 20.7032 20.7237C18.0274 23.4002 16.5009 27.0147 16.4483 30.799V56.1093H35.1728C35.6556 53.7023 36.8377 51.4913 38.571 49.7529C40.3043 48.0145 42.5119 46.8259 44.9174 46.3361V27.6902Z" fill="#003A54"/>
<path fill-rule="evenodd" clip-rule="evenodd" d="M30.874 2.05827C23.2414 2.09212 15.9312 5.13942 10.5344 10.5369C5.13758 15.9343 2.09118 23.245 2.05827 30.8776V56.1057H0V30.8776V30.7918C0.0543084 22.6421 3.3159 14.8416 9.07876 9.07873C14.8416 3.31588 22.6421 0.0543084 30.7919 0H44.728V2.05112L30.874 2.05827Z" fill="#003A54"/>
</svg>
