<svg width="775" height="410" viewBox="0 0 775 410" fill="none" xmlns="http://www.w3.org/2000/svg">
<path fill-rule="evenodd" clip-rule="evenodd" d="M1.07422 348.713L5.8958 352.866L6.77018 350.939L7.31979 348.813L10.3177 345.386L13.2156 344.786L20.4854 336.606L23.2835 334.779L30.4284 324.848L32.0522 321.546L33.751 316.844L35.7496 313.867L38.5726 312.216L46.7668 302.21L48.6155 297.307L51.9131 295.28L54.0866 289.827L59.4078 289.026L60.4571 287L60.2572 284.724L60.1573 281.422L61.5313 279.02L57.684 275.543L52.2879 287.726L42.6697 299.433L38.3977 305.787L28.3299 317.744L24.3827 321.596L19.4862 329.401L15.1392 334.454L12.716 336.13L4.82156 345.111L1.07422 348.713ZM36.9987 357.193L37.1236 357.218L88.687 364.298L141.774 371.627L162.135 375.154L230.511 385.135L235.808 388.688L241.354 386.686L256.618 388.012H266.786L279.402 391.114C279.402 391.114 306.607 392.215 307.956 392.215C309.281 392.215 325.644 393.115 325.644 393.115L332.289 395.767C332.289 395.767 350.201 396.442 351.975 396.868C353.749 397.318 359.495 397.993 361.269 397.993C363.042 397.993 366.365 398.418 366.365 398.418C366.365 398.418 373.56 400.87 375.259 400.645C376.982 400.42 381.404 401.52 382.279 401.971C383.178 402.421 387.15 402.646 387.15 402.646C387.15 402.646 393.346 400.195 395.994 401.095C398.667 401.971 400.441 402.621 403.089 403.296C405.762 403.947 407.736 403.071 408.61 403.071C409.509 403.071 415.48 403.972 416.579 404.197C417.679 404.397 422.55 403.747 425.198 405.073C427.871 406.398 432.518 409.05 435.616 408.174C438.714 407.299 445.334 405.748 447.108 405.748H453.528L456.851 407.499L461.048 405.523L489.603 405.748L512.611 403.071L550.21 400.87H562.176L580.538 400.42L613.939 396.868L623.682 399.319C623.682 399.319 635.624 398.869 637.173 397.993C638.722 397.093 641.37 396.642 643.368 396.642C645.367 396.642 651.113 395.992 651.113 395.992L660.631 395.091C660.631 395.091 677.669 393.991 678.768 393.991C679.868 393.991 691.384 393.766 694.707 393.34C698.005 392.89 707.748 391.789 711.295 391.789C714.843 391.789 722.587 390.889 724.786 390.238C727.009 389.563 731.881 388.913 734.079 388.913C736.302 388.913 746.695 388.462 746.695 388.462L751.117 387.787L752.016 387.137L745.596 381.808L744.697 376.28L737.751 360.245L735.853 354.391L728.333 351.465C728.333 351.465 727.434 343.935 727.434 342.609C727.434 341.258 727.883 331.753 727.659 330.402C727.434 329.076 724.786 323.548 723.686 322.447C722.587 321.321 720.813 317.794 722.787 316.443C724.786 315.117 731.431 308.038 731.431 308.038C731.431 308.038 730.332 305.612 729.657 304.486C728.983 303.385 728.783 301.384 727.434 300.959C726.11 300.508 724.786 299.408 724.561 298.507C724.336 297.632 723.487 296.356 724.911 295.656C726.335 294.955 727.883 293.629 727.883 292.529C727.883 291.428 729.208 290.102 730.332 289.652C731.431 289.202 733.43 288.326 733.43 286.1C733.43 283.898 733.629 281.897 735.853 281.222C738.076 280.571 739.825 279.896 739.825 278.345C739.825 276.794 739.175 274.142 739.175 274.142L740.275 269.94L736.302 265.287C736.302 265.287 734.079 263.936 735.403 262.61C736.727 261.284 736.727 260.834 736.502 259.734C736.302 258.633 736.502 257.757 735.178 257.957C733.854 258.183 733.43 257.957 733.43 256.857C733.43 255.756 733.205 255.081 733.854 254.205C734.529 253.305 734.953 251.754 733.854 250.203C732.755 248.652 732.98 248.452 734.079 247.326C735.178 246.225 732.755 244.449 734.304 243.123C735.853 241.798 736.302 241.572 736.302 239.796C736.302 238.02 738.276 235.369 740.05 235.143C741.824 234.918 744.472 232.942 744.472 231.166C744.472 229.39 744.472 227.389 745.796 228.064C747.145 228.715 749.118 226.738 750.442 226.738C751.792 226.738 752.216 225.613 752.891 224.512C753.54 223.411 753.99 222.736 755.539 222.511C757.088 222.286 758.637 220.735 759.961 220.735C761.285 220.735 762.634 220.535 763.283 218.984C763.958 217.433 765.507 217.508 764.183 215.907C762.834 214.331 761.734 212.555 764.607 212.555C767.48 212.555 770.153 212.329 769.254 210.328C768.38 208.327 767.93 207.677 768.38 206.126C768.829 204.575 768.38 203.249 769.704 202.574C771.028 201.923 771.702 200.597 771.028 198.821C770.378 197.045 769.254 193.493 767.705 193.268C766.156 193.043 765.057 191.717 765.931 189.741C766.831 187.739 766.831 184.863 765.057 183.962C763.283 183.087 760.635 181.31 760.635 180.21C760.635 179.084 760.635 174.656 762.184 174.006C763.733 173.331 763.733 171.78 763.058 170.004C762.409 168.227 762.184 168.027 760.635 167.352C759.086 166.677 758.412 164.475 758.412 164.475C758.412 164.475 755.539 162.474 753.765 164.025C751.991 165.576 749.118 165.126 748.694 163.8C748.244 162.474 747.794 159.372 747.345 158.271C746.92 157.171 746.92 157.171 745.371 157.171C743.822 157.171 742.923 158.046 742.498 159.147C742.048 160.273 739.6 159.597 739.175 158.497C738.726 157.396 738.501 155.169 740.275 154.294C742.048 153.393 742.273 152.293 740.275 151.617C738.276 150.967 736.078 148.741 734.953 147.19C733.854 145.639 734.079 146.314 734.079 143.637C734.079 140.986 733.405 140.536 731.856 139.435C730.307 138.334 729.657 136.108 728.108 136.783C726.559 137.434 725.01 137.434 724.786 135.683C724.561 133.906 722.138 129.904 720.139 130.805C718.14 131.68 717.266 133.231 718.59 135.007C719.914 136.783 720.139 138.559 718.59 138.334C717.041 138.109 714.393 138.334 714.393 136.783C714.393 135.232 712.619 131.23 711.745 130.354C710.846 129.479 709.072 128.128 709.072 128.128L704.875 117.496L699.554 96.6837C699.554 96.6837 696.681 96.9088 695.581 97.1339C694.482 97.3341 689.611 99.1102 687.612 99.5604C685.613 100.011 678.543 105.764 675.446 107.09C672.348 108.416 666.827 106.64 664.154 104.438C661.506 102.212 657.758 103.338 655.76 103.338C653.761 103.338 648.665 102.212 647.116 101.337C645.567 100.436 640.495 100.661 637.398 100.011C634.3 99.3353 630.528 99.1102 629.203 99.1102C627.879 99.1102 620.36 100.436 617.911 100.436C615.488 100.436 612.615 101.111 610.841 101.987C609.068 102.887 607.744 103.113 602.223 102.212C596.677 101.337 594.028 106.865 593.804 109.316C593.579 111.743 591.58 113.969 589.607 114.845C587.608 115.72 582.512 115.945 579.414 114.845C576.316 113.744 573.018 110.642 571.02 107.54C569.021 104.438 569.696 99.5604 570.795 97.7843C571.894 96.0083 572.569 93.8069 569.696 91.1303C566.823 88.4786 563.5 88.7038 561.951 89.3792C559.078 89.3792 557.08 91.5805 555.756 93.3566C554.432 95.1327 552.208 94.4573 550.659 94.032C549.11 93.5818 546.237 92.4811 544.464 91.8057C542.69 91.1303 536.944 88.9289 535.17 87.6031C533.396 86.2773 530.074 85.3767 528.525 84.9265C526.976 84.5012 521.905 79.3981 519.906 76.7465C517.907 74.0698 515.259 75.1955 513.486 75.4206C511.712 75.6208 509.938 75.4206 508.839 74.9704C507.74 74.5201 501.769 72.0936 499.321 70.9679C496.822 69.8672 497.272 68.3163 497.047 66.3151C496.822 64.3138 493.425 61.8623 491.601 59.8611C489.777 57.8599 483.657 53.8574 482.732 52.7568C481.833 51.6311 480.459 50.3053 479.11 49.855C477.736 49.4297 471.615 47.4285 471.615 47.4285C471.615 47.4285 467.069 47.8538 465.02 45.8525C462.971 43.8513 457.75 40.074 455.027 42.5255C452.304 44.977 448.881 46.3028 448.207 47.2034C447.532 48.0789 446.383 48.0789 445.259 46.528C444.11 44.977 440.487 40.2991 439.563 39.1985C438.664 38.0728 432.743 33.6451 431.394 31.869C430.02 30.0929 429.12 26.7408 428.896 24.9647C428.671 23.1887 427.297 19.4113 426.622 18.3107C425.948 17.185 422.3 10.3058 422.3 10.3058L417.079 3.1764C417.079 3.1764 413.656 5.40276 412.083 5.85304C410.484 6.30331 405.038 9.40521 404.363 10.3058C403.664 11.1813 399.566 14.5334 398.892 15.4089C398.217 16.3094 396.619 19.1862 395.719 19.6365C394.82 20.0868 390.723 22.3131 389.798 22.3131L388.274 22.2631L389.474 23.1887L389.898 23.5139L390.148 23.689L391.322 25.1399L392.546 27.041L392.347 30.9934L391.272 34.7708L390.698 39.3986L387.525 40.7994L386.651 41.1747L384.752 42.6256L382.079 41.9001L379.531 43.1509L378.931 40.5743L378.806 38.8482L376.358 37.8977L373.385 39.6237L368.513 42.3504L367.189 45.4773L367.564 48.1039L368.663 51.3059L369.138 55.4084L369.912 57.3346L371.187 59.8611L371.112 65.5646L370.587 67.5658L372.835 72.0186L372.735 77.2718L373.01 77.8471L374.01 80.0235L374.234 83.5006L373.985 89.6544L374.534 91.5805L375.259 95.9082L375.933 99.5854L376.058 105.039L376.133 106.114L377.507 110.617L378.207 114.52L377.582 118.497L377.732 121.099L378.307 121.924L380.155 124.676L380.18 125.376L380.23 129.104L380.255 129.679L383.153 134.307L384.477 137.734L384.677 140.761L384.277 144.738L381.579 150.367L377.657 154.119L375.658 156.871L364.491 159.122L359.795 160.748L351.925 163.675L349.302 163.4L348.278 164.55L346.579 169.278L345.355 169.778L342.682 168.878L339.634 165.576L337.96 166.551L336.836 169.253L335.337 169.578L333.139 169.503L329.466 166.677L326.818 169.278L322.271 169.803L320.423 168.177L318.074 168.978L315.576 167.402L311.879 167.227L309.805 165.626L305.683 165.901L304.134 165.551L301.961 165.701L301.011 164.475L298.813 164.175L296.989 166.051L290.294 163.9L287.421 160.148L283.549 154.519L281.125 150.967L273.056 147.815L270.833 147.315L257.242 152.668L254.22 153.093L250.048 152.343L249.823 152.318L240.429 149.266L233.909 149.516L229.937 148.941L227.663 150.417L224.266 151.767L222.167 152.793L220.169 152.493L216.396 148.615L215.572 146.264L212.849 141.661L214.073 140.711L215.297 136.658L217.371 134.982L220.718 133.206L224.366 129.229L228.038 125.376L228.838 124.526L232.035 123.625L235.383 121.424L237.007 116.721L240.429 112.744L243.577 110.992L244.576 109.592L246.375 107.29L250.797 104.789L255.069 100.311L258.591 94.3823L261.04 92.0308L264.787 86.2773L269.983 79.1479L276.104 72.8191L283.199 67.7159L288.195 64.1137L290.044 62.0124L290.569 60.2113L289.694 57.0094L290.269 55.8837L294.766 51.1808L296.29 47.8037L296.989 45.1271L297.039 39.6487L298.713 35.171L301.486 34.0953L302.785 30.5181L303.36 29.6176L308.231 26.8659L310.555 25.39L311.329 23.814L311.154 21.4376L311.529 20.3119L312.328 19.3863L315.551 18.0605L319.998 15.8091L321.797 13.8579L321.722 12.7072L321.547 10.3558L320.922 9.43023L320.772 9.3802L312.803 7.17885L312.503 7.32894L310.605 10.3558L304.284 20.3369L299.163 27.4413L290.444 39.5737L277.578 60.1863L269.359 69.9923L254.095 92.9314L237.032 110.392L236.532 110.917L231.486 115.445L228.638 117.096L221.543 123.65L219.869 124.301L218.97 125.376L217.671 126.902L208.927 132.956L197.885 139.535L195.736 141.286L193.812 142.812L178.673 148.39L167.806 149.591L161.96 148.04L157.863 145.714L154.59 142.887L152.342 139.985L150.093 140.21L149.019 140.936L146.996 142.287L139.001 142.487L136.278 141.311L123.163 146.089L117.642 146.614L109.697 144.813L99.5044 146.489L99.0297 146.464L92.5093 146.064L90.2609 144.888L86.9883 142.036L85.5643 140.811L83.2659 140.11L80.3929 144.088L79.0689 148.515L75.6963 153.193L74.2973 156.395L72.0239 166.677L71.5992 171.555L70.7498 181.06L71.5992 183.862L74.5471 188.965L75.2216 195.094L79.7434 208.727L79.5935 215.281L78.6692 221.71L77.1702 232.092L74.1224 240.071L72.5235 247.551L68.976 253.93L65.4036 262.61L61.7062 266.438L60.4071 269.414L60.632 272.241L61.4813 273.267L64.3043 276.669L67.7019 277.97L72.7733 278.245L74.8469 278.07L76.1459 274.818L77.47 274.167L78.2694 273.067L77.8198 272.041L76.9454 271.766H74.8469L74.0974 270.94L73.9725 269.364L74.0225 268.864L74.8968 261.735L75.5464 254.48L76.9704 250.503L81.0675 247.351L86.7134 239.846H86.9883L94.1582 239.271L94.3081 239.296L96.8313 239.921L100.953 243.449L102.677 249.978L101.953 258.458L102.977 262.435L105.375 266.638L107.124 268.764L109.447 269.464L111.621 268.589L114.694 265.687L118.941 259.734L119.39 259.108L119.865 258.433L120.065 258.408L123.312 257.807L126.41 255.281L130.507 252.154L133.63 252.079L134.305 252.204L137.178 252.679L138.777 253.255L141.35 252.879L145.147 252.404L147.77 254.831L149.819 254.33L152.842 252.854L154.365 254.48L156.689 253.255L158.812 253.78L161.71 255.156L165.158 254.705L170.604 253.23L172.977 252.179L174.901 252.554L176.025 253.53L174.601 255.206L175.051 256.757L176.35 257.707L179.273 257.482L184.269 256.932L184.844 257.407L176.7 266.988L168.73 269.89L167.131 269.314L166.307 267.613L166.332 265.687L165.782 265.362L162.435 267.038L157.438 274.267L153.116 279.346L148.844 282.497L146.996 283.323L139.451 286.75L128.809 290.753L125.011 292.979L120.09 296.881L114.843 302.735L109.098 307.088L103.152 310.715L101.078 311.065L98.555 309.864L96.9312 304.536L95.5822 302.91L91.2852 301.134L88.5621 299.608L86.9883 299.358L86.4386 299.258L84.49 300.834L82.7163 304.661L80.5678 310.465L80.368 312.216V316.443L78.0196 323.848L75.2216 330.227L72.0738 334.004L66.7776 337.256L62.6555 338.457L56.8097 340.183L50.4642 343.01L44.1936 346.887L39.9966 352.69L36.9987 357.193Z" fill="#00496A"/>
<path d="M320.697 9.08002L321.546 10.3558L321.721 12.7072L321.796 13.8579L319.998 15.8091L315.551 18.0605L312.328 19.3863L311.529 20.3119L311.154 21.4376L311.329 23.814L310.554 25.39L308.231 26.8659L303.359 29.6176L302.785 30.5181L301.486 34.0953L298.713 35.171L297.039 39.6487L296.989 45.1271L296.289 47.8037L294.766 51.1808L290.269 55.8837L289.694 57.0094L290.568 60.2113L290.044 62.0124L288.195 64.1137L283.199 67.7159L276.104 72.8191L269.983 79.1479L264.787 86.2773L261.039 92.0308L258.591 94.3823L255.069 100.311L250.797 104.789L246.375 107.29L244.576 109.592L243.577 110.992L240.429 112.744L237.006 116.721L235.383 121.424L232.035 123.625L228.837 124.526L228.038 125.376L224.365 129.229L220.718 133.206L217.37 134.982L215.297 136.658L214.073 140.711L212.849 141.661L215.572 146.264L216.396 148.615L220.168 152.493L222.167 152.793L224.266 151.767L227.663 150.417L229.937 148.941L233.909 149.516L240.429 149.266L249.822 152.318L250.047 152.343L254.219 153.093L257.242 152.668L270.832 147.315L273.056 147.815L281.125 150.967L283.548 154.519L287.421 160.148L290.294 163.9L296.989 166.051L298.813 164.175L301.011 164.475L301.96 165.701L304.134 165.551L305.683 165.901L309.805 165.626L311.878 167.227L315.576 167.402L318.074 168.978L320.422 168.177L322.271 169.803L326.818 169.278L329.466 166.677L333.138 169.503L335.337 169.578L336.836 169.253L337.96 166.551L339.634 165.576L342.681 168.878L345.355 169.778L346.579 169.278L348.278 164.55L349.302 163.4L351.925 163.675L359.794 160.748L364.491 159.122L375.658 156.871L377.657 154.119L381.579 150.367L384.277 144.738L384.677 140.761L384.477 137.734L383.153 134.307L380.255 129.679L380.23 129.104L380.18 125.376L380.155 124.676L378.306 121.924L377.732 121.099L377.582 118.497L378.206 114.52L377.507 110.617L376.133 106.114L376.058 105.039L375.933 99.5854L375.258 95.9082L374.534 91.5805L373.984 89.6544L374.234 83.5006L374.009 80.0235L373.01 77.8471L372.735 77.2718L372.835 72.0186L370.587 67.5658L371.111 65.5646L371.186 59.8611L369.912 57.3346L369.138 55.4084L368.663 51.3059L367.564 48.1039L367.189 45.4773L368.513 42.3504L373.385 39.6237L376.358 37.8977L378.806 38.8482L378.931 40.5743L379.53 43.1509L382.079 41.9001L384.752 42.6256L386.65 41.1747L387.525 40.7994L390.697 39.3986L391.272 34.7708L392.346 30.9934L392.546 27.041L391.322 25.1399L390.148 23.689L389.898 23.5139L389.473 23.1887L388.224 22.2131L387.774 21.8628" stroke="#0978AB" stroke-width="0.874004" stroke-linejoin="round"/>
<path d="M36.1743 358.444L39.9966 352.69L44.1936 346.887L50.4642 343.009L56.8097 340.183L62.6555 338.457L66.7776 337.256L72.0738 334.004L75.2216 330.227L78.0196 323.848L80.3679 316.443V312.216L80.5678 310.465L82.7163 304.661L84.49 300.834L86.4386 299.258L86.9883 299.358L88.5621 299.608L91.2852 301.134L95.5822 302.91L96.9312 304.536L98.555 309.864L101.078 311.065L103.152 310.715L109.098 307.087L114.843 302.735L120.09 296.881L125.011 292.979L128.809 290.752L139.451 286.75L146.996 283.323L148.844 282.497L153.116 279.345L157.438 274.267L162.435 267.038L165.782 265.362L166.332 265.687L166.307 267.613L167.131 269.314L168.73 269.89L176.7 266.988L184.844 257.407L184.269 256.932L179.273 257.482L176.35 257.707L175.051 256.757L174.601 255.206L176.025 253.53L174.901 252.554L172.977 252.179L170.604 253.23L165.158 254.705L161.71 255.156L158.812 253.78L156.689 253.255L154.365 254.48L152.842 252.854L149.819 254.33L147.77 254.83L145.147 252.404L141.35 252.879L138.777 253.255L137.178 252.679L134.305 252.204L133.63 252.079L130.507 252.154L126.41 255.281L123.312 257.807L120.065 258.408L119.865 258.433L119.39 259.108L118.941 259.733L114.694 265.687L111.621 268.589L109.447 269.464L107.124 268.764L105.375 266.638L102.977 262.435L101.953 258.458L102.677 249.978L100.953 243.449L96.8313 239.921L94.3081 239.296L94.1582 239.271L86.9883 239.846H86.7134L81.0675 247.351L76.9704 250.503L75.5464 254.48L74.8968 261.735L74.0225 268.864L73.9725 269.364L74.0974 270.94L74.8469 271.766H76.9454L77.8198 272.041L78.2694 273.067L77.47 274.167L76.1459 274.818L74.8469 278.07L72.7733 278.245L67.7019 277.97L64.3043 276.669L61.4814 273.267L60.632 272.241L60.4071 269.414L61.7062 266.438L65.4036 262.61L68.976 253.93L72.5235 247.551L74.1224 240.071L77.1702 232.092L78.6692 221.71L79.5935 215.281L79.7434 208.727L75.2216 195.094L74.5471 188.965L71.5992 183.862L70.7498 181.06L71.5992 171.554L72.0239 166.677L74.2973 156.395L75.6963 153.193L79.0689 148.515L80.3929 144.088L83.2659 140.11L85.5643 140.811L86.9883 142.036L90.2609 144.888L92.5093 146.064L99.0297 146.464L99.5044 146.489L109.697 144.813L117.641 146.614L123.163 146.089L136.278 141.311L139.001 142.487L146.996 142.287L149.019 140.936L150.093 140.21L152.342 139.985L154.59 142.887L157.863 145.714L161.96 148.04L167.806 149.591L178.673 148.39L193.812 142.812L195.736 141.286L197.885 139.535L208.927 132.956L217.671 126.902L218.97 125.376L219.869 124.301L221.543 123.65L228.638 117.096L231.486 115.445L236.532 110.917L237.032 110.392L254.095 92.9314L269.359 69.9923L277.578 60.1863L290.444 39.5737L299.163 27.4413L304.284 20.3369L310.605 10.3558L313.178 6.2783M1.07422 348.713L4.82156 345.111L12.716 336.13L15.1392 334.454L19.4862 329.401L24.3827 321.596L28.3299 317.744L38.3977 305.787L42.6697 299.433L52.2879 287.726L57.684 275.543L61.5313 279.02L60.1573 281.422L60.2572 284.724L60.4571 287L59.4078 289.026L54.0866 289.827L51.9131 295.28L48.6155 297.306L46.7668 302.209L38.5726 312.216L35.7496 313.867L33.751 316.843L32.0522 321.546L30.4284 324.848L23.2835 334.779L20.4854 336.606L13.2156 344.786L10.3177 345.386L7.31979 348.813L6.77018 350.939L5.8958 352.866L1.07422 348.713Z" stroke="#0978AB" stroke-width="0.874004" stroke-linejoin="round"/>
<path d="M175.976 253.48L184.694 252.979L185.519 252.679L190.965 250.828L195.737 247.326L196.211 247.226L198.61 246.701L205.829 246.35L208.303 246.25L209.052 246.2H209.102L209.427 246.175L210.101 246.15L214.248 246.475L215.473 246.801L215.647 246.951L219.22 250.178L219.345 250.228L221.643 251.478L230.487 252.204L231.736 252.904L240.48 249.602L242.079 249.677L243.952 251.478L244.977 253.43L252.796 261.134L257.867 264.762L263.039 265.337L265.987 268.114L268.21 267.713L269.934 266.388L272.557 266.738L275.805 266.087L279.202 266.288L280.651 265.362L283.474 265.687L285.473 266.638L286.772 266.263L288.87 263.136L292.218 262.86L303.735 264.461L305.733 265.212L308.906 268.764L313.378 272.216L315.102 272.091C315.102 272.091 319.674 273.242 319.674 274.793C319.674 276.344 320.548 276.569 321.672 277.244C322.771 277.895 323.871 278.345 324.97 278.345C326.094 278.345 326.519 278.12 326.519 276.344C326.519 274.568 326.968 273.917 328.292 273.917C329.617 273.917 333.614 274.568 334.938 273.467C336.262 272.366 338.26 272.366 339.36 272.591C340.459 272.817 341.133 273.467 341.583 274.568C342.008 275.693 343.132 275.468 344.231 274.793C345.33 274.142 346.455 273.242 347.779 274.793C349.103 276.344 351.751 277.469 352.85 277.895C353.974 278.345 355.073 278.345 356.173 277.244C357.272 276.119 358.821 275.243 360.17 276.119C361.494 277.019 360.595 277.67 360.37 278.57C360.17 279.446 361.919 280.571 363.268 279.446C364.592 278.345 365.691 278.57 366.565 280.121C367.465 281.672 369.463 281.447 370.338 279.896C371.212 278.345 373.435 278.345 373.885 279.671C374.31 280.997 375.209 282.322 377.632 282.322C380.081 282.322 380.73 282.322 381.63 283.448C382.504 284.549 383.828 284.324 384.503 283.448C385.152 282.547 383.179 281.672 386.926 282.547C390.698 283.448 390.024 280.771 391.573 280.997C393.121 281.222 394.246 280.346 395.12 281.447C395.994 282.547 398.668 282.547 397.993 281.222C397.343 279.896 397.543 278.795 398.668 278.795C399.767 278.795 400.416 277.895 400.641 277.019C400.866 276.119 400.641 275.468 402.865 275.018C405.063 274.568 408.161 271.04 409.285 270.14C410.384 269.264 411.059 268.164 412.807 268.164C414.581 268.164 419.228 267.713 420.777 267.713C422.326 267.713 422.551 267.939 423.45 269.039C424.324 270.14 425.648 271.916 426.972 271.691C428.296 271.466 429.421 271.466 430.52 272.141C431.619 272.817 435.616 273.917 436.491 274.793C437.39 275.693 438.714 276.344 440.038 275.693C441.362 275.018 441.362 275.468 442.012 276.794C442.686 278.12 442.911 278.345 444.235 277.244C445.559 276.119 445.559 276.794 447.333 276.794C449.107 276.794 451.98 276.119 452.429 277.469C452.854 278.795 454.853 279.896 456.402 279.02C457.95 278.12 458.4 278.12 459.724 278.345C461.048 278.57 461.273 279.02 462.597 278.12C463.921 277.244 467.244 277.244 469.018 277.67C470.791 278.12 473.439 278.57 473.439 278.57C473.439 278.57 478.536 277.67 480.959 277.469C483.407 277.244 486.73 276.119 487.829 275.693C488.928 275.243 491.352 273.467 493.8 274.367C496.223 275.243 496.898 274.367 498.222 273.467C499.546 272.591 501.32 272.141 502.644 272.591C503.968 273.017 506.641 271.916 508.19 271.691C509.739 271.466 512.612 270.59 513.711 271.691C514.81 272.817 516.809 275.018 518.582 274.367C520.356 273.692 521.231 272.591 522.13 271.691C523.004 270.815 524.103 271.266 524.553 272.366C525.003 273.467 525.652 274.142 526.752 273.242C527.876 272.366 528.3 272.366 528.3 273.692C528.3 275.018 528.525 276.569 530.299 273.917C532.073 271.266 533.622 271.466 533.172 273.017C532.747 274.568 532.947 276.119 534.071 275.243C535.171 274.367 534.946 274.367 536.495 274.793C538.044 275.243 540.267 275.243 539.143 276.569C538.044 277.895 537.819 279.22 539.592 278.57C541.366 277.895 541.816 279.02 540.492 279.896C539.143 280.771 538.493 281.222 538.943 282.322C539.368 283.448 540.042 283.448 541.366 282.322C542.69 281.222 544.914 280.121 545.139 282.122C545.338 284.098 547.112 284.774 547.787 286.1C548.436 287.425 549.336 287.651 549.985 286.325C550.66 284.999 551.534 284.774 551.984 286.1C552.433 287.425 553.757 288.526 554.857 287.425C555.981 286.325 558.179 286.1 558.179 286.1C558.179 286.1 561.952 286.1 561.952 287.2C561.952 288.326 561.952 288.326 563.276 288.976C564.6 289.652 565.049 291.853 566.823 291.428C568.572 290.978 569.471 291.628 569.022 292.754C568.572 293.854 569.471 294.305 570.57 295.18C571.67 296.081 572.344 297.181 572.569 298.057C572.794 298.958 573.668 300.508 575.892 299.608C578.09 298.732 576.541 302.71 578.54 301.384C580.538 300.058 580.089 300.058 581.638 300.058C583.187 300.058 586.284 301.159 586.284 301.159C586.284 301.159 586.934 302.935 586.059 303.61C585.185 304.261 584.061 305.812 583.411 306.712C582.737 307.588 582.512 309.364 584.061 308.689C585.61 308.038 586.734 307.813 586.284 309.364C585.835 310.915 585.185 311.565 583.636 312.691C582.087 313.792 581.638 315.793 582.962 315.793C584.286 315.793 586.734 317.569 584.96 317.769C583.187 317.994 582.962 318.444 582.962 319.545C582.962 320.671 582.312 321.096 581.413 321.096C580.538 321.096 580.089 320.671 579.864 322.647C579.639 324.648 579.414 325.324 580.763 324.423C582.087 323.548 582.312 324.198 582.087 325.749C581.862 327.3 581.638 328.2 583.411 327.75C585.185 327.3 584.735 329.301 583.636 330.402C582.512 331.527 580.763 333.954 582.312 334.179C583.861 334.404 584.735 334.83 584.96 335.955C585.185 337.056 585.185 337.281 584.061 337.056C582.962 336.831 582.312 336.38 582.312 337.731C582.312 339.057 580.763 340.383 579.864 339.282C578.99 338.157 577.665 337.931 577.441 339.282C577.216 340.608 578.315 341.709 576.991 342.584C575.667 343.485 575.667 343.71 574.768 342.384C573.893 341.033 572.569 342.159 573.019 343.26C573.443 344.36 573.443 346.812 573.443 346.812C573.443 346.812 572.344 351.014 571.245 352.115C570.121 353.241 570.795 353.441 572.119 355.217C573.443 356.993 572.344 358.094 570.795 358.319C569.246 358.544 567.698 359.87 568.797 360.971C569.921 362.096 568.572 364.523 568.572 364.523C568.572 364.523 566.373 368.075 565.274 369.176C564.15 370.276 563.051 372.052 563.051 372.953C563.051 373.828 562.826 378.031 563.925 377.381C565.049 376.705 566.149 376.055 566.373 377.155C566.598 378.256 565.699 379.157 564.15 379.807C562.601 380.482 560.628 381.358 560.628 381.358C560.628 381.358 560.178 384.235 561.952 384.91C563.725 385.586 562.601 386.911 561.502 387.137C560.403 387.337 559.728 387.787 559.503 388.687C559.278 389.563 557.954 391.564 557.305 390.013C556.63 388.462 556.181 390.013 555.306 390.889C554.432 391.789 553.982 392.665 554.207 393.766C554.432 394.891 554.207 396.642 554.207 397.543C554.207 398.018 554.457 399.494 554.932 400.845" stroke="#0978AB" stroke-width="0.874004" stroke-linejoin="round"/>
<path d="M699.604 96.6837C699.604 96.6837 696.681 96.9088 695.582 97.1339C694.482 97.3341 689.611 99.1101 687.612 99.5604C685.639 100.011 678.544 105.764 675.446 107.09C672.348 108.416 666.827 106.64 664.154 104.438C661.506 102.212 657.758 103.338 655.76 103.338C653.761 103.338 648.69 102.212 647.141 101.337C645.592 100.436 640.496 100.661 637.398 100.011C634.3 99.3353 630.528 99.1101 629.204 99.1101C627.88 99.1101 620.36 100.436 617.912 100.436C615.488 100.436 612.615 101.111 610.842 101.987C609.068 102.887 607.744 103.113 602.223 102.212C596.677 101.337 594.029 106.865 593.804 109.316C593.579 111.743 591.605 113.969 589.607 114.845C587.608 115.72 582.512 115.945 579.414 114.845C576.316 113.744 573.018 110.642 571.02 107.54C569.021 104.438 569.696 99.5604 570.795 97.7843C571.894 96.0082 572.569 93.8069 569.696 91.1303C566.823 88.4786 563.5 88.7038 561.951 89.3792C559.078 89.3792 557.08 91.5805 555.756 93.3566C554.432 95.1327 552.208 94.4573 550.659 94.032C549.11 93.5818 546.237 92.4811 544.464 91.8057C542.69 91.1303 536.944 88.9289 535.17 87.6031C533.397 86.2773 530.074 85.3767 528.525 84.9265C526.976 84.5012 521.905 79.3981 519.906 76.7465C517.908 74.0698 515.259 75.1955 513.486 75.4206C511.712 75.6208 509.963 75.4206 508.839 74.9704C507.74 74.5201 501.769 72.0936 499.321 70.9679C496.823 69.8672 497.297 68.3163 497.047 66.3151C496.823 64.3138 493.425 61.8623 491.601 59.8611C489.778 57.8599 483.657 53.8574 482.733 52.7568C481.833 51.6311 480.459 50.3053 479.11 49.855C477.736 49.4297 471.615 47.4285 471.615 47.4285C471.615 47.4285 467.069 47.8538 465.02 45.8525C462.972 43.8513 457.75 40.074 455.027 42.5255C452.304 44.977 448.882 46.3028 448.207 47.2034C447.532 48.0789 446.383 48.0789 445.259 46.5279C444.11 44.977 440.487 40.2991 439.563 39.1985C438.664 38.0728 432.743 33.6451 431.394 31.869C430.02 30.0929 429.121 26.7408 428.896 24.9647C428.671 23.1887 427.297 19.4113 426.622 18.3107C425.948 17.185 422.3 10.3058 422.3 10.3058L417.079 3.1764" stroke="#0978AB" stroke-width="0.874004" stroke-linejoin="round"/>
<path d="M417.078 3.1764C417.078 3.1764 413.656 5.40276 412.082 5.85304C410.483 6.30331 405.037 9.40521 404.362 10.3058C403.663 11.1813 399.591 14.5334 398.891 15.4089C398.217 16.3094 396.618 19.1862 395.719 19.6365C394.819 20.0868 390.722 22.3131 389.798 22.3131" stroke="#0978AB" stroke-width="0.874004" stroke-linejoin="round"/>
<path d="M510.612 271.04C510.612 271.04 512.836 268.389 513.935 267.713C515.034 267.038 516.583 267.038 517.682 265.937C518.806 264.837 519.456 263.936 521.005 264.161C522.554 264.386 523.878 263.736 524.328 262.61C524.777 261.51 525.876 259.959 526.976 259.959C528.1 259.959 528.749 259.508 529.424 258.633C530.073 257.732 529.874 256.857 531.622 256.857C533.396 256.857 533.846 256.632 533.846 255.081C533.846 253.53 535.17 253.305 535.17 253.305C535.17 253.305 536.944 253.079 537.393 251.979C537.818 250.878 538.493 248.877 540.491 247.551C542.465 246.225 543.589 245.125 544.014 244.224C544.463 243.349 546.462 237.795 546.462 237.795C546.462 237.795 546.912 232.717 547.336 231.816C547.786 230.941 549.11 228.489 549.11 228.489C549.11 228.489 549.56 227.614 550.884 227.164C552.208 226.738 553.307 226.063 554.656 224.287C555.98 222.511 555.53 220.535 556.854 220.309C558.179 220.084 559.303 217.433 560.627 216.982C561.951 216.532 564.824 215.431 565.698 214.981C566.598 214.531 568.796 212.104 570.145 210.553C571.469 209.002 571.669 207.677 572.568 207.001C573.443 206.351 573.892 206.126 574.992 206.126C576.116 206.126 576.54 205.025 576.765 203.899C576.99 202.799 578.089 201.248 579.214 200.572C580.313 199.922 579.863 198.596 582.511 198.146C585.184 197.696 586.958 195.494 588.282 195.269C589.606 195.044 589.606 194.369 590.705 192.167C591.805 189.941 592.704 188.19 592.704 187.064C592.704 185.963 592.254 185.738 593.354 184.638C594.478 183.537 594.478 182.636 594.253 181.761C594.028 180.86 593.803 179.985 594.703 179.084C595.577 178.209 599.549 172.88 600.449 172.68C601.323 172.455 603.321 172.23 604.196 171.78C605.095 171.329 605.745 171.129 607.094 170.004C608.418 168.903 609.517 168.027 610.841 168.227C612.165 168.453 613.289 168.678 614.164 170.004C615.038 171.329 616.162 172.455 619.035 171.78C621.908 171.129 621.683 170.454 623.907 171.329C626.105 172.23 627.654 170.004 629.428 170.679C631.202 171.329 631.851 169.353 633.2 169.128C634.524 168.903 635.624 168.027 637.622 168.027C639.596 168.027 641.369 166.677 641.369 166.677C641.369 166.677 642.694 165.801 644.242 166.251C645.791 166.677 646.466 166.251 647.79 164.925C649.114 163.575 651.337 164.475 652.437 165.126C653.536 165.801 655.085 167.127 656.209 167.352C657.308 167.577 659.082 168.027 659.731 168.903C660.406 169.778 662.18 169.578 663.054 168.678C663.953 167.802 665.053 166.677 666.602 167.802C668.15 168.903 669.25 169.128 670.149 169.778C671.023 170.454 673.447 171.329 674.121 172.455C674.796 173.556 676.769 174.231 678.093 174.006C679.442 173.781 680.991 174.006 682.091 174.656C683.19 175.332 686.512 175.982 687.387 176.658C688.286 177.333 689.835 177.333 690.934 177.333C692.033 177.333 692.033 176.883 693.158 177.533C694.257 178.209 696.031 177.758 696.031 177.758C696.031 177.758 698.029 177.108 699.353 178.209C700.677 179.309 702.451 181.961 702.451 181.961L703.325 185.963L703.775 188.165C703.775 188.165 707.098 192.392 707.972 193.043C708.847 193.718 709.746 194.369 709.071 195.269C708.422 196.145 708.647 197.696 708.647 197.696L709.071 199.697" stroke="#0978AB" stroke-width="0.874004" stroke-linejoin="round"/>
<path d="M538.917 275.018C538.917 275.018 541.14 273.692 542.265 274.568C543.364 275.468 545.562 276.144 545.337 274.793C545.113 273.467 544.238 272.817 544.688 271.941C545.113 271.04 545.787 270.165 546.661 270.59C547.561 271.04 548.46 270.815 548.66 269.94C548.885 269.039 548.91 268.164 550.459 267.939C551.983 267.713 554.631 267.038 554.631 268.364C554.631 269.715 555.53 269.489 556.205 268.589C556.854 267.713 558.653 266.388 558.853 267.939C559.053 269.489 558.603 270.365 560.602 270.59C562.6 270.815 563.724 270.84 563.949 271.941C564.174 273.017 565.723 275.693 565.723 275.693C565.723 275.693 567.472 275.918 567.472 274.793C567.472 273.692 567.022 272.766 568.146 272.566C569.245 272.366 569.695 271.04 569.695 271.04C569.695 271.04 570.345 269.715 571.244 270.165C572.118 270.59 573.667 270.815 574.542 271.491C575.441 272.141 576.99 271.716 576.99 271.716C576.99 271.716 578.789 269.965 579.663 271.491C580.512 273.017 581.637 273.467 581.637 274.568C581.637 275.693 581.862 277.019 582.736 276.119C583.635 275.243 584.734 275.468 584.734 275.468C584.734 275.468 585.434 276.569 586.958 276.344C588.482 276.119 588.257 278.57 589.806 278.57C591.38 278.57 591.605 279.446 590.93 280.321C590.256 281.222 589.806 281.672 590.48 282.773C591.155 283.898 591.605 284.774 592.704 284.549C593.803 284.324 596.001 284.324 595.352 285.449C594.677 286.55 595.777 288.526 595.777 288.526C595.777 288.526 596.676 291.653 598 290.978C599.349 290.302 600.223 290.077 600.448 291.428C600.673 292.754 601.548 293.654 602.197 292.754C602.872 291.853 605.095 292.529 605.095 292.529C605.095 292.529 607.518 294.73 608.618 294.73C609.717 294.73 611.715 296.056 612.165 296.956C612.615 297.832 613.064 299.183 613.939 299.633C614.838 300.058 617.037 302.26 617.461 303.61C617.911 304.936 618.361 306.937 618.361 306.937C618.361 306.937 618.585 307.588 620.359 308.463C622.133 309.364 622.558 309.364 623.432 308.914C624.331 308.463 624.781 308.463 624.781 309.789C624.781 311.14 624.781 312.241 625.431 313.141C626.105 314.017 627.004 315.568 627.004 316.443C627.004 317.344 628.553 320.446 627.879 321.321C627.204 322.222 626.78 322.197 627.204 323.748C627.654 325.324 627.004 326.65 626.33 327.525C625.655 328.426 625.655 328.626 626.78 329.301C627.879 329.952 627.654 331.302 627.654 331.302C627.654 331.302 626.805 331.302 629.203 332.178C631.626 333.078 631.851 332.853 632.301 334.179C632.75 335.505 634.074 337.256 634.074 337.256C634.074 337.256 634.949 337.931 635.848 338.607C636.723 339.257 639.82 341.058 639.146 342.384C638.496 343.685 638.721 345.236 638.721 345.236C638.721 345.236 638.496 348.363 639.596 349.013C640.72 349.689 640.72 351.215 640.72 351.215L640.045 358.544C640.045 358.544 639.596 362.997 640.72 364.097C641.819 365.173 642.718 365.173 643.143 366.074C643.593 366.949 644.692 367.174 645.566 366.949C646.466 366.749 646.691 366.049 646.691 364.948C646.691 363.872 648.239 362.972 648.239 362.972H650.238C650.238 362.972 651.537 360.971 651.987 362.772C652.436 364.548 653.086 364.323 654.21 364.323C655.309 364.323 656.633 366.524 656.633 367.625C656.633 368.725 656.009 371.152 657.083 372.277C658.182 373.378 659.282 373.828 659.731 374.704C660.181 375.604 660.606 376.93 662.18 377.831C663.728 378.706 663.928 379.332 665.477 379.132C667.026 378.932 668.8 378.256 669.699 379.132C670.574 380.032 670.773 380.482 672.547 380.257C674.321 380.032 676.544 380.257 676.544 380.257C676.544 380.257 678.743 378.932 680.517 378.932C682.29 378.932 682.74 380.032 683.639 380.032C684.514 380.032 686.063 380.908 685.863 382.033C685.638 383.134 685.613 385.586 686.937 385.811C688.261 386.036 689.16 387.337 690.06 387.787C690.934 388.237 691.384 388.662 692.033 389.563C692.708 390.439 695.131 393.54 695.131 393.54" stroke="#0978AB" stroke-width="0.874004" stroke-linejoin="round"/>
<path d="M610.842 295.405C610.842 295.405 612.865 294.955 615.289 296.056C617.687 297.181 619.91 296.506 620.81 296.056C621.684 295.63 623.233 295.405 624.332 295.18C625.456 294.955 625.681 292.504 628.554 294.055C631.402 295.63 632.751 295.38 633.85 294.505C634.975 293.654 636.499 293.854 638.497 294.28C640.496 294.73 643.344 295.18 644.468 295.18C645.567 295.18 646.017 294.305 646.916 293.429C647.791 292.529 648.915 291.878 650.689 291.878C652.437 291.878 654.436 291.428 655.985 290.527C657.534 289.652 660.432 289.652 662.83 289.652C665.253 289.652 667.252 288.751 668.826 288.751C670.375 288.751 671.898 288.976 672.998 289.652C674.122 290.302 677.22 291.878 677.22 291.878L679.418 295.856C679.418 295.856 681.642 297.407 682.541 298.282C683.415 299.183 684.964 301.609 684.964 301.609C684.964 301.609 686.063 304.486 688.287 303.61C690.51 302.71 691.609 303.385 691.609 303.385C691.609 303.385 693.808 304.711 694.907 304.036C696.031 303.385 697.355 302.71 698.255 303.836C699.129 304.936 698.03 306.737 698.03 308.038C698.03 309.364 698.03 310.915 697.355 311.815C696.681 312.691 696.906 314.267 697.131 315.142C697.355 315.993 697.58 319.57 696.906 320.446C696.256 321.346 694.907 322.872 694.907 322.872C694.907 322.872 694.707 325.099 694.707 326.199C694.707 327.325 693.608 328.225 693.158 329.101C692.709 329.952 692.309 331.077 692.934 332.628C693.583 334.179 693.133 333.954 695.582 334.855C698.03 335.73 698.255 337.506 698.255 337.506C698.255 337.506 698.255 340.383 697.355 340.833C696.481 341.283 695.132 341.509 695.582 343.06C696.031 344.585 697.131 347.262 696.906 348.363C696.681 349.463 697.58 352.34 697.58 352.34L699.804 355.442L703.326 355.892C703.326 355.892 705.125 353.891 706.424 353.666C707.748 353.441 706.624 351.89 708.622 351.89C710.621 351.89 711.745 350.364 711.745 350.364C711.745 350.364 713.769 348.813 714.618 349.463C715.493 350.139 719.715 351.24 719.715 351.24H723.012H726.785L728.983 351.44" stroke="#0978AB" stroke-width="0.874004" stroke-linejoin="round"/>
<path fill-rule="evenodd" clip-rule="evenodd" d="M729.432 357.869C729.432 357.869 728.783 355.892 728.558 355.017C728.333 354.116 728.308 351.24 729.432 351.44C730.532 351.665 732.98 352.34 733.854 352.34C734.754 352.34 736.502 352.34 737.177 353.441C737.852 354.567 738.951 357.869 738.951 357.869L740.275 362.321L741.599 366.074C741.599 366.074 742.024 371.152 742.923 372.277C743.797 373.378 744.921 373.828 745.146 374.729C745.371 375.604 744.921 377.606 744.022 377.831C743.148 378.056 742.049 377.606 741.599 376.505C741.174 375.379 741.399 373.378 740.275 372.953C739.176 372.503 736.952 371.852 736.502 370.977C736.053 370.076 734.529 369.176 734.529 369.176C734.529 369.176 733.854 367.85 732.755 366.974C731.656 366.074 729.857 364.523 729.208 365.623C728.558 366.749 727.684 367.399 726.335 366.299C725.011 365.198 724.336 364.548 725.235 363.872C726.11 363.197 725.685 362.546 725.235 361.646C724.786 360.77 725.685 358.769 726.56 360.32C727.459 361.871 728.533 361.421 729.432 360.77C730.307 360.095 729.432 357.869 729.432 357.869Z" fill="#C6ECFF" stroke="#0978AB" stroke-width="0.874004" stroke-linejoin="round"/>
<path d="M749.368 386.686C747.369 385.811 746.245 386.036 745.146 386.036C744.022 386.036 741.823 384.91 741.598 384.035C741.398 383.134 741.398 382.033 741.823 380.908C742.273 379.807 742.723 377.606 742.723 377.606" stroke="#0978AB" stroke-width="0.874004" stroke-linejoin="round"/>
<path d="M147.021 283.323L147.97 285.699L151.392 294.23L153.441 295.43L158.238 296.006L159.437 297.557L160.186 300.834L161.635 301.384L164.958 300.834L166.956 302.76L167.306 303.085L167.931 303.685L169.979 303.76L172.827 302.81L175.85 303.41L178.573 303.335L181.121 302.159L182.82 303.21L184.219 304.061L187.442 303.21L191.089 304.811L193.612 304.836L195.961 303.66L197.61 305.537L198.259 306.287L203.555 305.512L205.754 306.537L208.452 306.562L210.201 307.788L211.999 307.888L217.021 305.987L220.718 307.788L222.117 308.463L222.617 309.214L223.541 310.565L226.289 318.369L227.339 318.77L228.063 319.97L229.662 319.82L230.112 319.77L231.685 321.271L235.508 321.446L238.93 324.398L240.854 323.723L242.503 321.446L245.501 319.87L250.997 315.693L252.945 311.991L254.994 313.116L257.567 314.567H257.867L259.516 314.467L261.839 314.342L262.688 314.592L265.162 315.318L266.386 313.341L266.536 313.066L267.485 314.142L271.207 318.394L272.981 318.695C272.981 318.695 275.205 318.67 275.854 319.995C276.529 321.321 278.952 321.772 279.626 322.647C280.301 323.548 280.726 323.973 280.301 324.873C279.851 325.749 280.076 326.199 280.95 326.649C281.85 327.075 284.048 330.402 283.399 332.178C282.724 333.954 282.949 335.505 281.625 335.505C280.301 335.505 279.402 334.83 279.177 336.18C278.952 337.506 279.402 338.607 277.203 338.607C274.98 338.607 275.854 341.258 275.854 341.258L272.981 341.934C272.981 341.934 269.883 343.035 269.883 344.135C269.883 345.261 271.657 346.362 272.756 347.462C273.88 348.588 274.98 347.913 276.079 349.238C277.203 350.564 277.403 352.115 277.403 352.115C277.403 352.115 280.301 354.116 281.4 353.666" stroke="#0978AB" stroke-width="0.874004" stroke-linejoin="round"/>
<path d="M312.803 7.17885L320.772 9.3802L357.946 21.3625L386.95 22.2131L389.848 20.1618C389.773 20.1868 389.698 20.1618 389.648 20.1618C391.522 19.5865 393.146 18.3857 394.87 17.5602C396.169 15.9592 396.968 14.2082 398.492 12.7823C402.189 9.3802 406.711 5.1276 411.508 3.80179C413.007 3.37652 414.63 2.25084 415.93 1.40031" stroke="#EF4136" stroke-width="2.5249" stroke-linejoin="round"/>
<path fill-rule="evenodd" clip-rule="evenodd" d="M327.867 360.32C327.867 360.32 325.868 360.77 325.868 361.646C325.868 362.546 326.518 363.422 326.518 363.422C326.518 363.422 328.292 365.423 326.967 366.749C325.643 368.075 324.544 371.177 325.868 372.277C327.192 373.403 329.416 374.729 329.416 375.83C329.416 376.93 328.516 377.606 328.067 378.481C327.642 379.382 326.743 380.708 327.867 381.583C328.966 382.484 329.616 383.134 329.616 384.26C329.616 385.36 330.065 387.562 330.065 387.562L332.064 389.113C332.064 389.113 330.965 387.562 331.164 385.586C331.389 383.584 331.614 382.259 330.515 381.583C329.416 380.933 328.067 380.257 329.84 378.706C331.614 377.155 331.614 374.504 330.065 373.603C328.516 372.728 325.194 369.851 326.967 369.176C328.741 368.525 328.292 366.974 329.191 365.648C330.065 364.298 329.191 362.747 329.191 362.747L327.867 360.32Z" fill="#C6ECFF" stroke="#0978AB" stroke-width="0.874004" stroke-linejoin="round"/>
<path d="M328.967 361.871C328.967 361.871 330.291 361.196 330.291 359.219C330.291 357.218 330.291 355.667 330.741 354.792C331.165 353.891 330.516 352.115 330.066 350.789C329.616 349.463 328.517 348.588 329.841 347.237C331.165 345.911 330.965 342.809 332.714 344.135C334.488 345.486 335.387 345.036 336.711 344.36C338.035 343.71 339.359 342.809 339.359 340.833C339.359 338.832 338.71 337.281 340.034 336.831C341.358 336.406 342.457 337.956 341.808 339.507C341.133 341.058 341.358 342.384 342.457 342.584C343.556 342.809 345.105 341.058 345.105 340.158C345.105 339.282 344.681 338.157 344.681 338.157" stroke="#0978AB" stroke-width="0.874004" stroke-linejoin="round"/>
<path fill-rule="evenodd" clip-rule="evenodd" d="M344.905 333.078C343.78 333.729 343.131 334.404 343.356 335.28C343.556 336.18 344.68 338.157 344.68 338.157C344.68 338.157 344.905 334.629 346.454 335.955C348.002 337.281 348.652 338.382 348.652 339.482C348.652 340.608 348.652 342.384 349.751 342.584C350.875 342.809 352.199 342.809 352.199 342.809C352.199 342.809 353.524 342.159 352.649 341.033C351.75 339.933 351.1 339.057 350.651 337.731C350.201 336.38 349.327 334.629 348.202 333.729C347.103 332.853 346.004 332.403 344.905 333.078Z" fill="#C6ECFF" stroke="#0978AB" stroke-width="0.874004" stroke-linejoin="round"/>
<path d="M352.425 342.384L353.974 345.036L356.847 344.811C356.847 344.811 359.27 342.809 359.495 341.258C359.72 339.707 359.045 338.832 359.944 337.956C360.819 337.056 361.943 337.506 362.368 338.607C362.817 339.707 363.267 340.833 364.366 341.058C365.466 341.258 366.14 342.159 367.014 340.833C367.914 339.507 367.914 339.057 369.463 339.057C371.012 339.057 372.76 338.382 372.76 337.281C372.76 336.18 372.111 335.73 370.562 335.955C369.013 336.18 367.464 337.056 367.464 335.73C367.464 334.404 367.914 333.954 369.013 333.304C370.112 332.628 370.787 332.403 371.436 330.852C372.111 329.301 372.111 328.426 370.787 327.525C369.463 326.649 370.112 326.199 369.463 324.873C368.788 323.548 367.914 321.997 369.463 321.321C371.012 320.671 372.111 320.896 373.21 321.772C374.309 322.647 377.207 322.222 377.207 322.222C377.207 322.222 377.407 319.995 377.207 318.67C376.982 317.344 376.982 315.343 378.756 314.692C380.505 314.017 381.629 312.241 380.305 311.365C378.956 310.465 378.756 308.914 380.08 308.263C381.404 307.588 381.629 305.587 381.629 304.711C381.629 303.836 381.854 302.935 383.403 302.71C384.952 302.51 386.051 302.51 386.7 301.609C387.375 300.734 387.15 298.732 386.276 297.632C385.376 296.506 385.152 296.506 385.152 295.18C385.152 293.854 384.952 293.629 383.828 292.529C382.728 291.428 381.404 289.202 380.955 288.326C380.505 287.425 379.406 288.101 378.306 287C377.207 285.875 376.533 284.549 376.533 284.549L375.858 282.122" stroke="#0978AB" stroke-width="0.874004" stroke-linejoin="round"/>
<path d="M210.101 246.15L209.926 246.801L209.826 247.226L209.726 247.601L209.651 247.951L209.626 247.976L210.3 248.777L210.325 248.827L211.25 249.953L211.824 250.403L212.999 251.278L213.873 251.478L214.772 251.654L216.146 251.954L218.62 253.33L219.919 254.03L223.591 254.68L228.063 254.155L231.76 252.904" stroke="#0978AB" stroke-width="0.874004" stroke-linejoin="round"/>
<path d="M547.961 201.073C547.961 201.073 546.112 199.472 545.587 198.421C545.063 197.345 544.263 195.969 545.063 194.694C545.837 193.443 545.837 192.642 546.912 191.317C547.961 189.991 547.686 188.215 547.686 186.889C547.686 185.563 546.637 184.487 547.436 182.911C548.236 181.31 547.961 181.11 547.686 179.785C547.436 178.459 546.362 174.756 546.362 174.756C546.362 174.756 545.912 173.231 544.313 172.705C542.739 172.18 541.665 171.655 541.665 170.579C541.665 169.528 541.141 166.677 541.141 165.626C541.141 164.55 540.616 164.025 539.567 164.825C538.493 165.626 536.969 165.876 536.719 164.825C536.444 163.75 536.194 159.847 535.919 158.522C535.645 157.196 535.994 156.145 536.969 154.819C537.968 153.493 538.293 151.692 537.243 150.367C536.194 149.041 534.87 147.19 534.32 146.139C533.796 145.063 533.271 144.338 532.222 144.338C531.148 144.338 529.899 143.287 529.899 143.287L529.374 140.36L530.173 138.259C530.173 138.259 532.147 136.208 530.623 134.607C529.099 133.006 528.3 132.155 529.374 131.155C530.423 130.179 529.374 128.053 527.775 128.053C526.201 128.053 524.078 127.778 524.078 127.778C524.078 127.778 522.279 127.853 521.754 129.379C521.23 130.905 520.705 131.68 519.631 131.68C518.582 131.68 516.733 132.23 516.733 132.23C516.733 132.23 515.734 131.755 515.484 130.704C515.209 129.629 515.209 127.778 515.209 127.778C515.209 127.778 514.684 125.927 513.36 125.927C512.036 125.927 509.188 126.402 508.139 124.876C507.065 123.35 505.741 122.024 504.691 121.499C503.617 120.949 501.319 119.373 500.519 120.423C499.72 121.499 498.921 122.55 497.597 122.55C496.272 122.55 495.548 121.824 495.023 123.075C494.499 124.351 493.974 124.876 492.65 124.876C491.326 124.876 488.678 125.126 488.678 125.126L486.879 127.252C486.879 127.252 485.83 128.053 484.781 128.303C483.706 128.578 479.534 129.379 479.534 129.379C479.534 129.379 477.436 130.704 475.837 130.704C474.238 130.704 472.989 131.155 472.989 131.155L470.866 133.556L467.693 133.806C467.693 133.806 466.718 135.132 465.644 135.658C464.595 136.208 462.471 136.208 462.471 136.208C462.471 136.208 459.623 135.733 459.099 137.259C458.574 138.784 457.775 140.36 457.775 140.36C457.775 140.36 457.25 141.686 456.176 141.436C455.127 141.161 449.631 139.31 448.307 139.035C446.982 138.784 440.962 137.259 440.962 137.259C440.962 137.259 437.864 138.509 436.79 138.509C435.74 138.509 436.015 139.31 434.941 139.31C433.892 139.31 432.093 139.51 431.319 138.259C430.519 136.983 426.622 133.556 423.974 132.481C421.326 131.43 419.452 130.905 418.403 130.905C417.353 130.905 413.706 131.68 413.706 131.68C413.706 131.68 409.809 131.68 408.735 131.68C407.685 131.68 406.361 131.63 404.762 130.905C403.189 130.179 400.341 128.578 399.291 129.629C398.217 130.704 396.094 131.955 396.094 131.955L393.271 132.481C393.271 132.481 388.574 130.429 387.25 130.179C385.926 129.904 384.602 129.104 383.527 129.379C382.478 129.629 380.43 130.429 380.43 130.429" stroke="#0978AB" stroke-width="0.874004" stroke-linejoin="round"/>
<path d="M1.07422 348.713L5.8958 352.866L37.1236 357.218L88.687 364.298L141.774 371.627L162.135 375.154L230.511 385.135L235.808 388.688L241.354 386.686L256.618 388.012H266.786L279.402 391.114C279.402 391.114 306.607 392.215 307.956 392.215C309.28 392.215 325.644 393.115 325.644 393.115L332.289 395.767C332.289 395.767 350.201 396.442 351.975 396.868C353.749 397.318 359.495 397.993 361.269 397.993C363.042 397.993 366.365 398.418 366.365 398.418C366.365 398.418 373.56 400.87 375.259 400.645C376.982 400.42 381.404 401.52 382.279 401.971C383.178 402.421 387.15 402.646 387.15 402.646C387.15 402.646 393.346 400.195 395.994 401.095C398.667 401.971 400.441 402.621 403.089 403.296C405.762 403.947 407.736 403.071 408.61 403.071C409.509 403.071 415.48 403.972 416.579 404.197C417.679 404.397 422.55 403.747 425.198 405.073C427.871 406.398 432.518 409.05 435.616 408.174C438.714 407.299 445.334 405.748 447.108 405.748H453.528L456.851 407.499L461.048 405.523L489.603 405.748L512.611 403.071L550.209 400.87H562.176L580.538 400.42L613.939 396.868L623.682 399.319C623.682 399.319 635.624 398.869 637.173 397.993C638.722 397.093 641.37 396.642 643.368 396.642C645.367 396.642 651.113 395.992 651.113 395.992L660.631 395.091C660.631 395.091 677.669 393.991 678.768 393.991C679.867 393.991 691.384 393.766 694.707 393.34C698.005 392.89 707.748 391.789 711.295 391.789C714.843 391.789 722.587 390.889 724.786 390.238C727.009 389.563 731.881 388.913 734.079 388.913C736.302 388.913 746.695 388.462 746.695 388.462L751.117 387.787" stroke="#EF4136" stroke-width="2.5249" stroke-linejoin="round"/>
<path d="M609.517 102.337C609.517 102.337 610.841 103.538 611.516 104.438C612.166 105.314 612.39 105.539 614.614 105.539C616.812 105.539 614.814 107.315 613.065 108.191C611.291 109.091 609.517 110.867 609.517 110.867C609.517 110.867 607.294 111.968 609.293 113.519C611.291 115.07 611.941 116.621 611.941 117.496C611.941 118.397 612.615 120.373 611.291 120.823C609.967 121.274 609.517 122.374 609.293 123.275C609.068 124.15 608.193 128.353 608.193 128.353C608.193 128.353 608.843 130.354 609.742 131.23C610.617 132.13 612.166 133.006 613.065 133.681C613.939 134.332 617.911 134.332 618.136 132.781C618.361 131.23 617.712 128.803 619.685 127.252C621.684 125.701 623.008 123.7 623.458 122.6C623.907 121.499 625.006 121.499 625.881 121.499C626.78 121.499 627.205 121.499 627.879 120.373C628.554 119.273 629.878 118.622 631.202 120.173C632.526 121.724 632.976 122.825 632.751 123.925C632.526 125.026 632.301 127.478 633.85 127.928C635.399 128.353 636.074 128.803 636.074 130.354C636.074 131.905 636.498 132.13 637.847 132.581C639.171 133.006 639.171 132.581 639.596 131.03C640.046 129.479 641.37 129.254 642.269 129.679C643.144 130.129 644.692 131.03 645.792 130.354C646.916 129.679 649.114 130.354 650.014 131.03C650.888 131.68 653.536 130.805 654.436 129.479C655.31 128.128 656.209 124.826 659.307 125.927C662.405 127.027 662.18 127.252 662.605 128.353C663.054 129.479 664.603 130.579 664.603 130.579L665.503 133.906C665.503 133.906 667.701 135.683 668.601 136.558C669.475 137.434 669.025 138.559 668.601 139.435C668.151 140.335 668.601 142.086 670.149 142.987C671.698 143.863 674.571 145.414 675.446 145.864C676.345 146.314 677.219 146.739 678.543 146.314C679.868 145.864 682.091 145.639 682.74 146.739C683.415 147.865 684.514 148.741 685.414 147.415C686.288 146.089 687.387 146.089 688.736 147.415C690.06 148.741 692.034 148.741 693.383 148.741C694.707 148.741 694.482 146.964 693.808 145.414C693.158 143.863 692.259 141.436 694.257 140.986C696.256 140.536 696.256 139.885 696.256 138.985C696.256 138.109 696.481 137.008 698.23 137.434C700.003 137.884 701.552 137.884 702.452 138.109C703.326 138.334 703.776 138.985 704.65 136.783C705.549 134.557 705.974 133.456 705.974 132.356C705.974 131.23 704.65 130.579 705.774 129.679C706.873 128.803 709.746 128.578 709.746 128.578C710.321 129.028 711.12 129.729 711.745 130.354C712.619 131.23 714.393 135.232 714.393 136.783C714.393 138.334 717.041 138.109 718.59 138.334C720.139 138.559 719.914 136.783 718.59 135.007C717.266 133.231 718.14 131.68 720.139 130.805C722.138 129.904 724.561 133.906 724.786 135.683C725.011 137.434 726.559 137.434 728.108 136.783C729.657 136.108 730.332 138.334 731.881 139.435C733.43 140.536 734.079 140.986 734.079 143.637C734.079 146.314 733.854 145.639 734.978 147.19C736.078 148.741 738.276 150.967 740.275 151.617C742.273 152.293 742.048 153.393 740.275 154.294C738.501 155.169 738.726 157.396 739.175 158.497C739.625 159.597 742.048 160.273 742.498 159.147C742.923 158.046 743.822 157.171 745.371 157.171C746.92 157.171 746.92 157.171 747.37 158.271C747.794 159.372 748.244 162.474 748.694 163.8C749.118 165.126 752.016 165.576 753.765 164.025C755.539 162.474 758.412 164.475 758.412 164.475C758.412 164.475 759.086 166.677 760.635 167.352C762.134 168.002 762.384 168.227 763.009 169.853L763.059 170.004C763.733 171.78 763.733 173.331 762.184 174.006C760.635 174.656 760.635 179.084 760.635 180.21C760.635 181.311 763.283 183.087 765.057 183.962C766.831 184.863 766.831 187.739 765.956 189.741C765.057 191.717 766.156 193.043 767.705 193.268C769.254 193.493 770.378 197.045 771.028 198.821C771.702 200.597 771.028 201.923 769.704 202.574C768.38 203.249 768.829 204.575 768.38 206.126C767.93 207.677 768.38 208.352 769.254 210.328C769.654 211.229 769.354 211.754 768.63 212.079" stroke="#0978AB" stroke-width="0.874004" stroke-linejoin="round"/>
<path d="M752.041 387.137L745.596 381.808L744.696 376.28L737.751 360.245L735.853 354.392L728.333 351.465C728.333 351.465 727.434 343.935 727.434 342.584C727.434 341.258 727.883 331.753 727.658 330.402C727.434 329.076 724.785 323.548 723.686 322.447C722.587 321.321 720.813 317.794 722.787 316.443C724.785 315.117 731.431 308.038 731.431 308.038C731.431 308.038 730.332 305.587 729.657 304.486C728.983 303.385 728.783 301.384 727.434 300.934C726.11 300.509 724.785 299.408 724.561 298.507C724.336 297.632 723.486 296.356 724.91 295.656C726.334 294.955 727.883 293.629 727.883 292.529C727.883 291.428 729.207 290.102 730.332 289.652C731.431 289.202 733.429 288.326 733.429 286.1C733.429 283.898 733.629 281.897 735.853 281.222C738.076 280.571 739.825 279.896 739.825 278.345C739.825 276.794 739.175 274.142 739.175 274.142L740.274 269.94L736.302 265.287C736.302 265.287 734.079 263.936 735.403 262.61C736.727 261.284 736.727 260.834 736.527 259.734C736.302 258.633 736.527 257.732 735.178 257.957C733.854 258.183 733.429 257.957 733.429 256.857C733.429 255.756 733.205 255.081 733.854 254.205C734.529 253.305 734.978 251.754 733.854 250.203C732.755 248.652 732.98 248.427 734.079 247.326C735.178 246.225 732.755 244.449 734.304 243.123C735.853 241.798 736.302 241.572 736.302 239.796C736.302 238.02 738.276 235.369 740.05 235.143C741.823 234.918 744.472 232.942 744.472 231.166C744.472 229.39 744.472 227.389 745.796 228.064C747.145 228.715 749.118 226.738 750.442 226.738C751.791 226.738 752.216 225.613 752.891 224.512C753.54 223.411 753.99 222.736 755.539 222.511C757.088 222.286 758.636 220.735 759.961 220.735C761.285 220.735 762.634 220.535 763.283 218.984C763.958 217.433 765.507 217.508 764.183 215.907C762.833 214.331 761.734 212.555 764.607 212.555C766.206 212.555 767.73 212.48 768.604 212.079C768.604 212.079 771.078 212.955 771.377 212.104C771.527 211.679 771.602 211.229 771.552 210.754C771.452 209.453 771.053 208.927 770.828 208.552C770.428 207.852 770.228 207.602 770.803 204.4C775.025 202.298 773.126 197.62 771.627 194.519C770.028 191.242 769.804 192.317 767.755 191.091C767.755 191.016 767.78 190.866 767.88 190.591C768.604 188.99 768.729 187.689 768.704 186.614C768.554 182.886 764.707 182.011 762.759 179.835C762.784 178.684 762.808 177.008 763.258 175.907C765.856 174.731 765.956 171.63 765.082 169.253L764.158 167.327C763.558 166.451 762.808 165.976 761.484 165.401C760.76 165.076 760.385 163.249 759.636 162.724C754.839 159.347 752.965 163.049 750.917 162.874L750.617 162.849C749.693 159.522 750.118 155.019 745.371 155.019C743.272 155.019 741.873 156.045 741.024 157.346C740.849 156.595 741.149 156.245 741.224 156.195C746.545 153.543 742.573 151.192 739.125 148.465C737.951 147.515 736.877 146.364 736.177 145.363C736.102 144.988 736.227 143.988 736.227 143.637C736.227 140.06 735.003 139.06 733.105 137.709C730.706 135.983 731.331 133.881 726.809 135.107C725.51 129.079 720.139 127.202 717.166 130.179C715.742 131.48 716.616 134.432 716.666 136.233C714.942 130.179 713.194 128.553 711.045 126.902C710.571 126.527 709.696 126.652 708.547 126.777L704.875 117.496L699.578 96.6837L698.929 94.6074C695.556 94.4573 692.383 96.3084 687.162 97.4842C684.839 97.9845 679.343 102.237 677.219 103.638C676.07 104.363 675.046 104.989 674.096 105.289C671.423 106.064 669.375 105.089 667.326 103.913C665.103 102.662 662.829 100.911 659.707 100.911C658.183 100.911 656.759 101.186 655.759 101.186C651.438 101.186 647.465 98.785 642.994 98.4598C638.397 98.1095 633.825 96.9839 629.203 96.9839C627.879 96.9839 620.36 98.3097 617.936 98.3097C612.89 98.3097 611.791 99.8606 609.143 100.411C607.694 100.736 605.795 100.636 602.547 100.111C595.103 98.91 591.93 106.29 591.68 109.116C591.23 114.194 583.411 113.994 580.138 112.844C577.39 111.843 573.918 108.916 572.394 105.614C571.369 103.388 571.319 101.011 572.618 98.91C577.04 91.8307 568.097 84.9515 561.526 87.2529C555.955 87.5531 555.156 92.381 553.282 92.381C551.558 92.381 546.612 90.3298 545.213 89.8045C543.239 89.054 541.366 88.3786 539.492 87.478C536.094 85.827 532.772 83.9259 529.124 82.8752C526.801 82.2248 524.802 79.1479 522.579 76.5714C520.555 74.2699 518.407 72.3688 514.585 73.0442C513.435 73.2443 512.286 73.4444 511.187 73.3444C507.365 72.9191 503.842 70.6928 500.22 69.0417C499.37 68.6665 499.345 68.4664 499.296 67.5909C498.971 62.6128 496.273 61.8123 493.175 58.4352C490.802 55.8086 486.38 53.8324 484.406 51.4059C482.358 48.9294 479.909 47.8538 477.261 46.9782C474.738 46.1777 472.015 45.5273 469.292 45.2772C465.744 44.902 461.622 39.6988 457.35 39.6237C456.126 39.5987 454.852 39.7988 453.603 40.9495C451.654 42.6756 449.306 43.6012 447.282 45.1521L446.983 45.2772C441.437 37.6975 440.737 37.5725 434.541 32.0191C430.295 28.1667 431.344 21.8879 428.446 17.185C427.771 16.0843 424.199 9.30516 424.199 9.30516L424.024 9.02999L419.102 2.32588C419.077 2.15078 419.028 1.82558 418.978 1.45035" stroke="#EF4136" stroke-width="2.5249" stroke-linejoin="round"/>
<path d="M158.587 254.205V252.204L162.809 251.754L163.034 246.676L165.232 246.225L165.682 238.696L163.683 238.47L164.133 236.469H166.556L166.781 234.268L163.034 233.818L161.485 234.918L159.711 234.493L159.037 228.715" stroke="#EF4136" stroke-width="1.06823" stroke-linejoin="round"/>
<path d="M102.627 253.305L106.824 248.001L107.049 250.653L110.147 250.003L111.696 252.879L115.893 252.654L115.243 249.552L118.99 248.652L119.665 250.203L127.185 249.777L130.282 250.428H134.03L137.202 250.203L136.753 247.776L134.255 245.35L131.831 246.45L129.833 246L131.157 243.799L136.028 242.023L135.379 240.247L137.127 237.145L136.703 235.819H135.354L134.479 233.818L133.155 235.143H129.833L131.831 238.02H133.605L133.155 240.247L130.732 241.122L128.509 240.472L127.834 236.694L126.51 236.244L126.285 233.367H129.383L130.057 231.816H131.606V228.94H129.608L124.087 226.513V224.062L122.763 222.286L124.961 220.96L126.96 222.511L130.282 221.86H132.281L133.605 223.186L135.379 228.715L142.674 229.84L142.449 232.267C142.449 232.267 141.349 234.693 142.449 235.594C143.548 236.469 146.871 236.244 147.745 236.044C148.644 235.819 153.941 234.693 153.941 234.693L151.292 232.267L153.066 230.716L154.615 230.491L154.39 227.839L156.838 228.064L159.487 228.94H161.485L162.135 230.04L166.132 231.591L170.554 233.818C170.554 233.818 172.327 232.267 173.427 232.942C174.526 233.593 175.625 232.267 175.625 232.267L174.526 229.84L177.399 227.839L178.298 226.063L175.625 223.837H173.427L173.876 220.735H175.425L176.525 217.633H179.622C179.622 217.633 182.27 216.082 183.819 216.532C185.368 216.982 188.016 217.633 188.016 217.633L189.34 218.984L191.339 218.758L191.789 216.532L192.663 212.555C192.663 212.555 192.014 212.33 190.889 212.33C189.79 212.33 188.241 210.553 190.889 210.328C193.562 210.103 193.987 209.678 193.987 209.678L192.663 206.576H191.114L190.465 207.902L186.243 207.452L185.143 209.002C185.143 209.002 184.494 208.777 184.044 207.902C183.594 207.001 185.143 205.025 185.143 205.025L185.368 202.348H187.142V199.021L190.015 198.821L193.562 201.248L194.886 197.696C194.886 197.696 193.787 197.495 193.987 196.145C194.212 194.819 193.113 193.718 192.238 194.819C191.339 195.944 190.015 195.719 188.916 195.494C187.792 195.269 186.692 195.044 186.692 195.044L186.917 192.167L188.916 189.941L191.114 191.942C191.114 191.942 192.663 192.167 194.212 191.492C195.761 190.841 198.209 189.941 198.209 189.941L198.634 186.839L201.956 185.738L204.63 187.514H207.927L207.053 183.087L209.051 179.309L208.152 177.108C208.152 177.108 209.701 175.557 210.825 175.332C211.924 175.107 212.799 174.882 212.799 174.882C212.799 174.882 210.825 172.23 211.924 170.904C213.024 169.578 214.123 169.128 214.123 169.128C214.123 169.128 215.247 170.904 216.121 171.129C217.021 171.329 221.867 172.23 221.867 172.23L222.092 169.578L219.894 170.004C219.894 170.004 219.894 167.352 220.318 166.476C220.768 165.576 222.542 164.925 222.542 164.925H229.187L230.511 164.025H232.285C232.285 164.025 233.159 166.677 232.285 168.027C231.386 169.353 229.187 170.229 229.187 170.229V172.68L234.483 173.331L233.384 171.129C233.384 171.129 236.257 171.329 237.581 171.329C238.905 171.329 239.13 170.679 239.13 169.778C239.13 168.903 238.905 166.476 238.905 166.476H240.679L240.029 161.373H242.003L239.355 157.596L239.58 154.944H244.676L245.551 150.967" stroke="#EF4136" stroke-width="1.06823" stroke-linejoin="round"/>
<path d="M74.9719 193.393L83.366 190.616L78.4944 186.839L81.3924 183.312L84.0405 182.636L82.0419 178.884L80.2682 177.533L77.62 179.534L76.0711 176.433L80.9427 174.656L79.6186 167.352L72.2988 166.677" stroke="#EF4136" stroke-width="1.06823" stroke-linejoin="round"/>
<path d="M74.2969 156.72L76.7451 157.596L78.294 153.393L79.8429 153.844L79.1684 155.82L80.9422 156.495L81.8165 154.944L84.2648 155.62L87.1378 153.168C87.1378 153.168 86.2384 150.066 86.2384 149.191C86.2384 148.29 86.2384 146.539 86.2384 146.539L87.1378 145.188L90.2356 146.964L89.1114 149.191L91.7845 148.29L92.0093 147.49L94.4326 148.065L93.9829 149.841C93.9829 149.841 97.7552 151.167 99.7538 151.167C101.727 151.167 104.401 150.517 105.725 150.292C107.049 150.066 109.922 151.842 109.922 151.842L116.117 155.169L118.116 154.719L117.891 156.495L119.665 156.946L121.438 155.395L124.087 156.27L126.96 155.395L130.057 155.82L134.029 158.922L137.352 158.046L138.476 154.719L140.45 152.718L140.9 150.292L136.253 150.066L136.478 147.19C136.478 147.19 134.929 146.539 133.805 146.964C132.705 147.415 130.932 147.64 131.157 146.539C131.381 145.414 131.831 143.212 131.831 143.212" stroke="#EF4136" stroke-width="1.06823" stroke-linejoin="round"/>
<path d="M140.226 152.718L141.55 154.269L144.223 153.393L143.323 150.967L143.998 149.416L145.547 151.617L148.195 150.967C148.195 150.967 148.42 148.515 148.42 147.64C148.42 146.739 148.645 142.762 147.745 141.886" stroke="#EF4136" stroke-width="1.06823" stroke-linejoin="round"/>
<path d="M103.726 366.074L108.148 362.096L107.698 358.319L106.149 357.669L103.501 351.69L101.952 351.014L103.726 345.486L99.9537 343.26L100.179 341.258L96.8559 337.956L93.7581 339.057L90.8852 329.076L88.9116 327.3C88.9116 327.3 86.4633 330.852 85.3641 331.528C84.2649 332.178 81.3919 332.853 81.3919 332.853L79.843 334.404H76.9451L74.9715 336.831L72.748 333.304" stroke="#EF4136" stroke-width="1.06823" stroke-linejoin="round"/>
<path d="M111.921 304.936L115.244 305.161L116.118 308.038L121.439 306.262L122.089 307.813L124.087 307.588L124.312 306.262L126.511 308.914L125.186 311.365L131.607 311.14C131.607 311.14 132.057 310.465 131.382 309.364C130.733 308.263 130.283 306.712 130.283 306.712L132.706 304.936H136.029V306.937L138.252 307.138V308.688L141.125 308.914L142.224 304.261L138.677 300.734L141.775 301.609V299.833L144.448 298.732L143.548 297.407L144.648 295.18" stroke="#EF4136" stroke-width="1.06823" stroke-linejoin="round"/>
<path d="M160.137 270.59L162.585 271.916L161.036 273.467L161.486 277.895L172.328 272.591L180.272 268.814L180.073 267.038L182.721 266.613L182.271 263.511C182.271 263.511 184.719 262.185 185.594 261.059C186.468 259.959 187.367 258.633 187.367 258.633L186.918 255.756H188.916L191.789 259.734L191.115 262.185L193.788 262.385C193.788 262.385 194.662 264.386 197.085 264.161C199.534 263.936 201.957 264.386 203.281 265.062C204.63 265.712 205.055 266.162 208.153 266.613C211.25 267.038 216.347 267.038 216.347 267.038L216.796 268.389L220.319 267.488L220.769 265.487H222.542V267.038L225.64 266.613L224.966 264.837L226.515 263.061L228.064 261.735L232.71 265.287L235.383 265.062L234.934 261.96L237.357 259.283L238.681 260.634L238.906 257.082C238.906 257.082 242.678 257.532 243.553 257.307C244.452 257.082 244.452 256.406 243.777 255.531C243.128 254.63 241.779 253.98 241.779 253.98L235.808 255.081L231.836 254.856L230.737 247.551C230.737 247.551 233.385 246.876 234.709 246C236.033 245.125 236.033 243.123 234.259 244.224C232.485 245.325 230.737 245.55 230.737 245.55L229.612 242.023L230.737 238.921L230.287 237.595C230.287 237.595 227.864 237.595 226.739 236.92C225.64 236.244 224.316 235.143 224.316 235.143L222.318 234.918L220.769 232.042V229.39L223.417 228.489L223.217 226.288C223.217 226.288 221.218 225.187 221.868 223.837C222.542 222.511 222.318 220.735 220.769 220.309C219.22 219.859 217.021 220.084 217.021 220.084L216.796 221.86L212.574 221.185C212.574 221.185 211.7 218.533 209.926 218.533C208.153 218.533 206.829 219.634 206.829 219.634L205.729 221.185L202.182 216.082L191.789 216.532" stroke="#EF4136" stroke-width="1.06823" stroke-linejoin="round"/>
<path d="M139.126 287L139.576 289.427L140 294.08L141.774 294.73L144.647 295.18C144.647 295.18 147.545 294.73 148.419 295.18C149.294 295.631 150.643 295.856 150.643 295.856H151.342C153.166 296.981 156.489 297.006 157.613 297.131L158.337 298.082C158.512 298.807 158.737 301.534 159.761 301.934C162.185 302.91 161.435 302.635 164.558 302.109L166.132 303.61L166.482 303.936C167.781 305.186 167.856 304.861 169.954 304.936L170.354 304.886L172.902 304.061L175.625 304.586L175.875 304.611C179.322 304.511 178.173 304.836 181.046 303.51L182.195 304.211L188.016 298.507L189.365 300.058L190.914 299.608L193.362 303.635C196.061 302.31 196.136 302.034 197.41 303.485L199.083 302.059L203.955 301.384L203.081 299.608L204.18 298.732L213.923 298.507L215.022 297.181H217.67L220.318 294.08L223.216 297.407L226.739 296.731L227.413 298.282L229.412 298.057L229.612 295.856C229.612 295.856 230.736 294.305 230.736 293.179C230.736 292.078 231.386 289.877 231.386 289.877L236.257 285.649L237.581 287L239.58 284.549C239.58 284.549 240.454 287 240.454 288.326C240.454 289.652 240.229 289.652 241.778 290.527C243.327 291.428 243.127 292.078 243.127 292.078L247.099 293.854L248.873 292.979L251.971 293.179" stroke="#EF4136" stroke-width="1.06823" stroke-linejoin="round"/>
<path d="M269.459 388.687C269.459 388.687 269.459 386.461 268.56 385.135C267.685 383.809 266.561 382.709 266.561 382.709L266.361 380.933L267.461 378.056L269.884 378.706L271.658 376.705L269.884 374.504L271.008 372.728L269.659 368.525L271.658 365.423L273.206 361.421L275.855 359.445L275.205 356.543L278.952 355.667L281.401 353.666L283.374 352.34L281.401 350.564L272.757 335.28L274.306 324.648H276.754L273.431 320.671L270.109 321.321L267.236 317.794L270.109 315.343L266.361 311.79L263.913 309.364L265.462 303.836" stroke="#EF4136" stroke-width="1.06823" stroke-linejoin="round"/>
<path d="M439.363 228.289L434.941 225.613L433.392 227.389L432.293 226.063L430.069 228.064L428.745 230.04C428.745 230.04 426.747 229.84 424.773 229.615C422.775 229.39 419.677 231.166 419.677 231.166L418.802 233.142H416.354L414.156 235.369L410.159 233.818L409.509 231.591H407.286L406.636 233.142C406.636 233.142 404.413 234.043 403.313 235.594C402.189 237.145 401.765 242.673 401.765 242.673L399.541 243.799L401.54 246.45L399.991 249.102L397.767 250.428C397.767 250.428 397.318 253.755 396.443 252.879C395.569 252.029 394.919 251.804 393.171 252.029C391.422 252.229 389.898 252.679 389.898 252.679L389.473 250.053C389.473 250.053 387.949 250.703 386.625 251.579C385.326 252.454 383.378 253.98 383.378 253.98L381.179 253.755C381.179 253.755 381.404 250.928 380.754 249.627C380.105 248.327 377.906 241.347 377.906 241.347C377.906 241.347 377.906 243.749 376.383 242.223C374.859 240.697 374.209 240.046 374.209 240.046C374.209 240.046 372.036 240.272 372.26 242.223C372.46 244.174 372.685 245.05 372.685 245.05L368.988 245.925C368.988 245.925 369.413 243.749 368.538 242.448C367.664 241.147 366.814 239.171 366.814 239.171L363.317 244.399L361.793 242.773L360.269 242.973L360.494 245.05C360.494 245.05 358.745 244.174 357.646 244.624C356.547 245.05 355.023 245.05 355.023 245.05C355.023 245.05 356.347 243.749 355.897 241.998C355.472 240.272 355.248 239.821 355.248 239.821H353.499L352.849 238.521H349.352C349.352 238.521 348.702 236.995 348.502 235.919C348.278 234.818 348.702 233.092 350.026 231.791C351.325 230.466 357.421 223.937 357.421 223.937L350.451 218.934V217.207L346.953 215.682L346.529 214.156L339.983 213.93L338.684 212.405L334.762 214.381L331.714 212.855L329.966 214.806L327.567 213.28L326.043 215.031L324.295 213.705L321.896 215.231L318.848 212.63L316.025 213.28C316.025 213.28 314.052 210.678 313.177 210.228C312.303 209.803 311.429 209.353 311.429 208.052C311.429 206.751 310.354 205 310.354 205H308.381" stroke="#EF4136" stroke-width="1.06823" stroke-linejoin="round"/>
<path d="M296.015 166.026C296.24 167.352 294.89 170.679 294.89 170.679C294.89 170.679 295.115 172.005 296.439 172.88C297.763 173.781 297.763 175.107 297.763 176.433C297.763 177.758 298.663 179.76 297.988 181.31C297.314 182.861 299.312 185.088 299.312 185.088L295.34 183.737C295.34 183.737 295.99 190.841 296.215 192.617C296.439 194.394 297.763 200.572 297.763 200.572L299.762 202.574L305.508 202.348L308.381 205.025C308.381 205.025 307.956 206.576 309.055 207.226C310.155 207.902 309.93 210.328 309.93 210.328L310.604 213.205C310.604 213.205 308.606 214.331 307.956 215.431C307.282 216.532 306.607 214.756 304.858 216.307C303.085 217.858 305.508 219.409 305.508 219.409C305.508 219.409 304.858 221.41 305.283 222.511C305.733 223.636 307.956 225.187 307.956 225.187L307.507 227.164C307.507 227.164 303.509 228.289 302.185 227.839C300.861 227.389 298.863 228.489 298.863 228.489C298.863 228.489 298.663 226.938 298.663 225.838C298.663 224.737 297.763 225.187 296.439 223.636C295.115 222.085 295.34 221.86 295.34 220.535C295.34 219.184 296.889 216.982 296.889 216.982C296.889 216.982 294.89 216.982 293.791 217.633C292.667 218.308 292.242 219.409 292.892 220.735C293.566 222.085 292.467 222.286 291.343 222.085C290.244 221.86 290.019 223.411 289.794 224.737C289.569 226.063 287.596 226.288 287.596 226.288V228.064C287.596 228.064 289.569 229.615 289.794 231.166C290.019 232.717 288.245 234.918 288.245 234.918L289.369 236.469C289.369 236.469 290.918 238.245 290.244 239.796C289.569 241.347 291.793 242.673 291.793 242.673L289.569 244.224L289.145 246.45L292.467 247.101L292.892 248.877L295.34 249.102L295.115 253.755L293.566 255.306L295.115 258.858L294.516 264.386L292.192 264.061L289.544 264.286C287.696 267.038 288.32 267.088 285.797 267.788C285.072 267.989 283.299 266.913 283.149 266.838L280.925 266.588C278.777 267.964 279.202 267.488 275.904 267.288L272.806 267.914H272.406L270.258 267.638C268.259 269.189 268.984 268.789 266.211 269.289C265.586 269.389 264.687 268.664 263.912 267.939L262.588 269.264V273.692C262.588 273.692 261.04 274.142 259.266 274.142C257.492 274.142 254.394 273.042 254.394 273.042L251.746 271.691L252.421 273.917L251.971 293.179C251.971 293.179 254.169 295.856 256.618 296.956C259.041 298.057 259.266 303.16 259.266 303.16C259.266 303.16 257.942 302.71 256.393 302.71C254.844 302.71 255.943 306.262 255.943 306.262L262.813 302.71L265.461 303.836L271.532 301.084V299.433L276.753 297.582L284.573 297.181L287.171 305.637L361.843 299.033L367.264 316.743L370.087 317.169C370.087 317.169 371.161 315.518 372.485 314.892C373.785 314.292 375.958 313.466 376.158 315.092C376.383 316.743 376.807 317.769 376.807 317.769H378.131C378.131 317.769 378.556 314.692 381.379 314.492C384.202 314.267 387.025 313.441 387.025 313.441L389.199 312.216L409.809 306.662L414.381 307.263" stroke="#EF4136" stroke-width="1.06823" stroke-linejoin="round"/>
<path d="M470.341 405.748C470.341 405.748 469.242 402.646 470.341 401.295C471.44 399.969 472.565 398.869 472.565 398.869L470.791 395.091L471.24 391.789C471.24 391.789 469.467 388.687 471.24 387.337C472.989 386.011 473.664 384.91 473.664 384.91C473.664 384.91 474.538 380.708 475.213 379.807C475.887 378.932 476.312 377.155 476.312 377.155L472.989 376.055L471.24 378.256C471.24 378.256 468.567 376.28 469.467 374.054C470.341 371.852 472.989 367.85 472.989 367.85V365.198L474.988 364.973L474.338 363.197L476.762 360.32L472.565 356.993L473.889 354.116L469.692 346.812L467.693 347.037L466.594 345.036L468.343 343.935L467.018 339.708" stroke="#EF4136" stroke-width="1.06823" stroke-linejoin="round"/>
<path d="M564.149 310.239L559.952 311.59L558.178 313.141L552.432 302.71L549.11 304.936C549.11 304.936 546.462 304.261 544.238 303.61C542.04 302.935 541.14 300.934 541.14 300.934L538.268 301.159L534.945 306.487L534.52 310.239L538.268 311.365C538.268 311.365 537.168 314.692 535.619 315.568C534.07 316.443 533.396 314.242 533.396 314.242L531.198 313.341C531.198 313.341 531.198 316.018 531.422 317.994C531.622 319.995 530.073 322.647 530.073 322.647L522.778 319.345L523.878 317.794L523.678 315.793L521.454 316.243L521.679 312.241L519.231 310.039L518.806 308.263C518.806 308.263 516.133 308.689 515.933 309.814C515.709 310.915 516.358 312.691 516.358 312.691L516.583 316.018L519.231 319.77L516.583 321.772L512.611 321.321L508.189 325.974C508.189 325.974 506.84 325.749 505.091 325.749C503.317 325.749 503.092 327.3 503.092 327.3L499.095 327.975L498.671 334.179L497.571 337.506L489.602 335.505L484.73 337.731L483.831 335.28L477.86 336.18L474.538 337.056L474.338 341.258L471.89 341.484L467.018 339.707L465.044 338.607L462.596 333.078C462.596 333.078 460.173 334.404 459.498 333.078C458.849 331.753 458.399 331.753 457.075 331.077C455.751 330.402 452.878 330.202 452.878 330.202C452.878 330.202 452.653 328.651 451.329 328.2C449.98 327.75 448.231 327.525 448.231 327.525L446.233 324.423H440.687L441.136 326.875L436.715 326.424L435.166 322.447L430.744 323.097C430.744 323.097 428.52 321.772 426.547 321.546C424.548 321.321 423.224 323.548 423.224 323.548H421.9L421.226 315.793L420.351 310.915C420.351 310.915 418.577 309.589 417.678 310.039C416.804 310.465 416.354 310.465 416.354 310.465L414.805 310.039L414.355 307.288L416.354 306.262L414.58 302.71L414.156 297.832L412.807 295.18L414.58 288.326L408.834 283.448L404.862 281.222L405.287 278.12L401.09 274.793C401.09 274.793 404.188 273.467 405.087 272.591C405.961 271.691 408.16 269.489 408.16 269.489C408.16 269.489 405.287 269.039 407.061 267.488C408.834 265.937 411.932 261.96 411.932 261.96L416.579 255.306L421.9 248.427L428.096 248.226L431.393 247.101L432.293 244.674L431.393 242.248L433.167 240.897L432.293 236.92L439.363 228.289L445.333 221.86L450.205 225.387L455.526 220.535L457.725 219.409" stroke="#EF4136" stroke-width="1.06823" stroke-linejoin="round"/>
<path d="M518.807 182.636L516.134 180.435L516.583 178.659L514.485 176.883L515.709 175.557L516.134 172.455L513.261 170.679L515.934 166.677L516.134 164.025L511.287 162.699L503.967 158.046C503.967 158.046 503.093 156.495 501.994 155.82C500.869 155.169 498.671 156.27 498.671 156.27L494.899 152.943L493.799 149.841L491.576 147.64L490.252 143.863L494.674 143.637L496.448 142.312L498.671 142.086L496.672 139.435C496.672 139.435 497.572 137.434 497.572 136.558C497.572 135.683 497.122 134.332 497.122 134.332L500.445 134.132L501.994 130.579L505.741 132.781L508.614 128.803L503.318 123.475L508.414 117.722L510.388 119.272H512.161C512.161 119.272 512.836 117.496 514.385 116.396C515.934 115.295 517.483 114.395 517.258 112.844C517.033 111.293 517.033 110.417 517.033 110.417L520.58 107.09L520.356 109.316L521.455 113.519C521.455 113.519 524.103 111.968 523.878 110.192C523.678 108.416 522.554 105.089 522.554 105.089L519.906 103.113L518.357 101.111L519.906 100.236" stroke="#EF4136" stroke-width="1.06823" stroke-linejoin="round"/>
<path d="M515.484 73.4194C515.484 73.4194 514.16 78.7227 513.71 79.8483C513.261 80.949 511.712 83.6006 511.712 83.6006L513.036 85.1516L511.287 86.0521C511.287 86.0521 512.836 86.9277 513.71 87.378C514.585 87.8282 515.934 88.9289 515.934 90.0296C515.934 91.1303 516.583 95.3578 516.583 95.3578L519.906 100.236C519.906 100.236 521.23 101.787 523.229 102.887C525.227 103.988 527.875 104.664 527.875 104.664C527.875 104.664 530.074 103.113 531.623 102.662C533.172 102.212 534.071 101.337 534.945 102.437C535.845 103.538 538.043 104.889 538.043 104.889C538.043 104.889 538.493 101.987 540.491 101.987C542.465 101.987 542.915 101.562 542.915 101.562L546.462 97.1339C546.462 97.1339 549.56 94.032 548.885 91.3554" stroke="#EF4136" stroke-width="1.06823" stroke-linejoin="round"/>
<path d="M605.97 197.495L603.097 197.696L599.124 201.698L598 201.023L592.929 206.776" stroke="#EF4136" stroke-width="1.06823" stroke-linejoin="round"/>
<path d="M377.507 110.617L380.305 110.642C380.305 110.642 380.08 112.418 380.954 113.294C381.854 114.194 383.403 116.171 383.403 116.171C383.403 116.171 386.5 113.744 387.825 113.294C389.149 112.844 389.373 111.743 391.797 112.643C394.245 113.519 394.245 113.519 394.245 113.519L396.893 111.518L393.346 131.23C393.346 131.23 395.869 131.58 396.893 130.354C397.992 129.028 399.316 127.553 401.989 128.428C404.638 129.329 405.512 129.904 405.512 129.904L403.738 133.906L405.087 135.232L403.089 140.11L402.864 143.437L406.186 143.637C406.186 143.637 405.287 145.864 406.411 146.539C407.511 147.19 413.481 150.742 413.481 150.742L414.156 156.946L416.804 159.822L415.255 160.273L416.354 163.6C416.354 163.6 419.677 164.25 421.001 165.151C422.325 166.026 424.548 167.127 424.548 167.127L425.873 168.903H427.871L427.646 170.904L431.194 175.332L438.264 170.904L441.811 171.78L442.91 173.781L444.684 173.105L443.585 171.129L444.684 170.004L443.135 167.577L444.909 166.026L447.332 166.476L449.556 171.129C449.556 171.129 451.329 173.105 451.979 172.005C452.654 170.904 452.878 170.229 452.878 170.229L455.976 170.004C455.976 170.004 456.851 171.129 458.175 171.354C459.499 171.555 460.623 171.555 460.623 171.555L466.793 177.533L472.34 174.882L474.988 178.209L463.921 191.942C463.921 191.942 459.499 203.024 458.399 205.025C457.3 207.001 451.979 213.205 451.979 213.205L457.075 217.207L457.725 219.409L466.594 225.187L467.918 230.04L470.566 229.84L471.89 227.164L473.689 226.513L476.312 231.391L475.437 233.593C475.437 233.593 477.436 234.268 478.535 234.043C479.634 233.818 483.407 231.166 483.407 231.166L482.507 229.39L483.407 226.513L487.379 226.288L494.249 228.064H497.122C497.122 228.064 496.672 226.063 497.572 225.387C498.446 224.737 500.22 224.062 500.22 224.062L500.869 220.084L502.418 219.184L506.415 218.758C506.415 218.758 505.966 216.082 504.417 215.657C502.868 215.206 502.218 214.756 502.868 213.655C503.542 212.555 502.418 210.553 502.418 210.553L497.996 209.228L490.702 201.248L493.35 198.821C493.35 198.821 494.899 200.597 496.223 199.472C497.572 198.371 500.669 195.269 500.669 195.269L503.967 195.719L509.063 189.516L509.738 186.188L511.062 183.962L513.71 184.863L514.809 182.636L517.258 183.537L520.355 180.635L524.552 183.537L524.103 184.863L530.074 184.187L531.622 185.963L534.296 184.412C534.296 184.412 535.62 185.513 537.618 185.513C539.592 185.513 545.787 185.288 545.787 185.288L549.11 185.088V183.087L551.983 181.085L554.206 178.659L562.376 181.986L567.922 189.741L571.669 193.493C571.669 193.493 571.894 194.168 572.344 195.494C572.793 196.82 574.342 196.82 574.342 196.82C574.342 196.82 575.666 197.921 576.316 198.821C576.99 199.697 577.44 200.372 577.44 200.372L578.764 198.821L580.962 200.797L585.409 206.351L589.831 205.025L592.929 206.801L595.577 208.777C595.577 208.777 597.126 211.654 596.901 212.78C596.676 213.88 597.351 216.307 597.351 216.307L594.703 220.535H592.704L592.254 218.533L586.733 219.409L581.187 221.185L580.763 222.736L576.541 222.961C576.541 222.961 574.767 225.187 574.567 227.839C574.342 230.491 571.469 232.042 571.469 232.042L569.92 235.369L565.923 234.268L564.149 235.819L570.12 263.061L564.599 264.386L562.6 267.038L562.825 272.591L563.925 274.793L562.176 275.243L562.825 279.02L566.373 280.346L565.049 284.098L566.598 286.1L564.149 288.751L563.275 290.377C563.275 290.377 564.549 291.853 565.199 292.253C565.873 292.629 567.022 292.479 567.472 292.429C567.922 292.354 568.172 292.303 567.922 293.304C567.722 294.18 568.246 294.805 568.696 295.18C569.146 295.58 570.195 296.581 570.845 297.131C571.519 297.682 571.019 298.958 571.019 298.958C571.019 298.958 569.695 302.285 569.471 303.385C569.246 304.486 565.698 305.386 565.698 305.386L564.149 310.239L562.825 312.466L564.599 312.916L561.951 319.77V332.403L569.246 330.202L572.119 331.302L574.117 330.202L579.214 332.178L586.059 331.953L586.509 333.304L590.481 333.504L597.351 338.382C597.351 338.382 602.447 337.506 603.322 336.606C604.196 335.73 605.545 335.055 605.545 335.055L608.193 336.405H611.066L613.714 337.956L612.615 339.282L614.614 340.833V342.609L616.812 343.035L621.234 340.608L624.107 341.709L631.202 340.158L633.4 337.956L637.173 335.73L638.946 331.753L636.723 329.301L636.298 327.1L642.694 325.749L643.368 322.447C643.368 322.447 642.694 322.647 641.594 322.447C640.495 322.222 641.37 320.671 642.494 320.221C643.593 319.77 643.818 318.895 643.818 318.895L641.37 317.994L639.596 319.545L638.047 318.444L638.946 314.692L637.622 312.241C637.622 312.241 638.946 309.589 640.27 309.139C641.594 308.689 643.143 307.363 642.694 306.037C642.269 304.711 640.27 300.934 640.27 300.934L638.497 298.507L642.044 293.629L644.467 294.305L646.466 292.303L647.565 291.853L648.015 288.976L655.759 288.101C655.759 288.101 652.662 284.098 653.111 279.446C653.536 274.793 653.536 272.591 653.536 272.591L651.987 272.141C651.987 272.141 651.987 270.14 650.238 270.14C648.465 270.14 648.889 270.14 647.565 270.59C646.241 271.04 645.592 271.916 645.142 270.815C644.692 269.715 642.269 269.715 642.269 269.715C642.269 269.715 641.145 269.264 641.37 267.713C641.594 266.162 641.594 261.735 641.594 261.735L642.694 258.858L644.692 258.408L646.016 256.181C646.016 256.181 644.243 255.081 644.692 253.53C645.142 251.979 646.691 248.226 646.691 248.226L644.692 246L646.241 245.325C646.241 245.325 649.339 246.225 650.213 246C651.113 245.775 652.437 245.125 652.437 245.125L652.212 242.448L650.663 242.673L650.013 240.672L651.562 240.472L651.113 237.795C651.113 237.795 650.238 234.918 651.987 233.142C653.761 231.391 654.86 230.716 655.535 231.591C656.209 232.492 657.758 233.367 657.758 233.367L658.857 230.941L661.505 231.166L660.856 232.717L663.729 234.043L662.829 236.044C662.829 236.044 665.702 236.469 666.827 235.594C667.926 234.693 670.149 233.818 670.149 233.818C670.149 233.818 673.447 235.143 676.345 234.268C679.218 233.367 680.991 231.816 680.991 231.816H683.64C683.64 231.816 685.413 231.591 686.063 232.492C686.737 233.367 687.387 233.593 688.936 232.942C690.485 232.267 691.609 232.267 691.609 232.267L694.482 232.942L693.807 236.044C693.807 236.044 697.355 237.595 697.805 239.571C698.229 241.572 696.48 243.348 696.48 243.348C696.48 243.348 699.353 243.123 700.902 243.123C702.451 243.123 704.425 242.673 704.425 242.673L707.523 243.574L708.197 241.798H712.394C712.394 241.798 713.943 238.696 715.267 238.696C716.591 238.696 721.463 239.346 721.463 239.346L721.688 241.122C721.688 241.122 724.136 241.122 725.46 241.798C726.784 242.448 728.333 242.673 728.333 242.673H730.107L734.304 243.123" stroke="#EF4136" stroke-width="1.06823" stroke-linejoin="round"/>
<path d="M651.113 237.795L646.691 238.471L644.468 240.247L642.694 238.696L638.497 239.571C638.497 239.571 637.847 239.346 636.723 238.245C635.624 237.145 634.075 236.244 633.201 236.244C632.301 236.244 629.878 235.369 629.878 235.369L628.979 234.268L623.907 233.818C623.907 233.818 622.558 235.594 621.234 236.469C619.91 237.37 617.911 238.02 617.911 238.02C617.911 238.02 615.713 237.37 617.262 236.244C618.811 235.143 619.036 234.268 617.911 233.818C616.812 233.367 614.614 232.717 614.614 232.717L614.164 230.941L611.941 229.84L613.065 227.389L611.941 224.512C611.941 224.512 610.167 222.961 609.292 222.085C608.418 221.185 608.193 219.634 608.843 218.758C609.517 217.858 610.617 217.207 610.617 217.207C610.617 217.207 610.841 215.882 612.39 214.981C613.939 214.106 614.389 213.205 614.389 213.205L613.939 211.429H611.066C611.066 211.429 611.716 208.552 610.617 207.226C609.517 205.901 607.968 205.025 607.968 205.025C607.968 205.025 608.418 201.473 607.744 200.372C607.069 199.246 605.97 197.47 605.97 197.47L605.32 192.167L606.644 189.516V185.738L612.39 185.513L614.814 184.638L614.389 182.636L620.809 180.86C620.809 180.86 620.584 178.884 620.584 177.758C620.584 176.658 619.91 174.882 619.91 174.882L618.986 170.729C618.986 170.729 620.809 169.778 622.358 170.004C623.907 170.229 625.231 170.754 626.33 170.304C627.43 169.853 628.554 167.802 628.554 167.802L630.103 165.801L631.652 160.473L633.201 157.821L634.949 156.72L627.654 151.392C627.654 151.392 624.557 148.515 623.008 149.416C621.459 150.292 620.36 150.292 620.36 150.292L617.712 146.964L614.389 148.966L610.392 146.314L610.617 142.762L607.069 139.66L606.195 137.234L610.392 133.456C608.743 132.205 607.669 130.554 607.069 128.728C606.844 128.103 608.043 123.375 608.143 122.975C608.393 121.974 608.943 120.373 610.866 119.723C610.891 119.698 610.916 119.598 610.916 119.323C610.916 118.672 610.766 117.947 610.766 117.496C610.766 115.92 607.319 113.994 607.294 112.018C607.294 111.318 607.619 110.592 608.793 109.892C610.192 108.566 611.691 107.715 613.29 106.69C610.991 106.49 610.267 104.639 608.718 103.213L606.744 101.111" stroke="#EF4136" stroke-width="1.06823" stroke-linejoin="round"/>
<path d="M623.682 399.319L622.558 394.216L626.33 394.891V393.34L630.102 390.439V387.137L635.174 379.157C635.174 379.157 637.172 377.831 638.271 380.032C639.396 382.259 641.369 380.482 641.369 378.932C641.369 377.381 640.945 374.054 640.945 374.054C640.945 374.054 639.171 370.726 638.496 369.851C637.847 368.95 637.622 366.974 638.047 366.074C638.496 365.198 639.171 363.697 639.171 363.697C638.796 362.622 638.596 361.021 638.871 358.419L639.521 351.114C639.321 349.413 637.297 350.064 637.522 345.286C637.422 344.21 637.522 342.909 638.022 341.934C637.547 341.108 634.049 338.757 633.375 338.232L633.125 337.981" stroke="#EF4136" stroke-width="1.06823" stroke-linejoin="round"/>
<path d="M92.4343 239.471V237.37L96.3066 234.143L102.277 233.042V228.489L109.247 220.635L114.793 217.633L113.344 213.43L106.499 206.901L105.05 203.899L103.052 205.575L104.051 207.001L101.953 206.351L99.954 207.351L96.6563 210.879L96.0817 209.878L94.1081 210.779L92.2095 213.655L88.4621 214.756L85.2644 213.755L84.6898 215.657H83.5906L83.3657 217.082L79.3936 217.207" stroke="#EF4136" stroke-width="1.06823" stroke-linejoin="round"/>
</svg>
