<?xml version="1.0" encoding="utf-8"?>
<!-- Generator: Adobe Illustrator 23.0.3, SVG Export Plug-In . SVG Version: 6.00 Build 0)  -->
<svg version="1.1" id="Слой_1" xmlns="http://www.w3.org/2000/svg" xmlns:xlink="http://www.w3.org/1999/xlink" x="0px" y="0px"
	 viewBox="0 0 56 75" style="enable-background:new 0 0 56 75;" xml:space="preserve">
<style type="text/css">
	.st0{fill:#EF4136;}
	.st1{fill:none;stroke:#FFFFFF;stroke-width:2;}
</style>
<g>
	<path class="st0" d="M27.9,3.2c-13.6,0-24.6,11.2-24.6,25c0,4.6,0.9,9.4,3.4,12.8l21.2,28.5l21.2-28.5c2.3-3.1,3.4-8.7,3.4-12.8
		C52.5,14.5,41.5,3.2,27.9,3.2z M27.9,17.7c5.7,0,10.4,4.7,10.4,10.5s-4.6,10.5-10.4,10.5s-10.4-4.7-10.4-10.5S22.2,17.7,27.9,17.7z
		"/>
	<path class="st1" d="M26.1,71l1.8,2.4l1.8-2.4l21.2-28.5c1.4-1.9,2.4-4.4,3-6.8c0.6-2.5,0.9-5.1,0.9-7.4C54.8,13.2,42.7,1,27.9,1
		S1.1,13.2,1.1,28.3C1.1,33.1,2,38.5,5,42.5L26.1,71z M27.9,20c4.5,0,8.1,3.7,8.1,8.2c0,4.5-3.6,8.2-8.1,8.2s-8.1-3.7-8.1-8.2
		C19.8,23.7,23.4,20,27.9,20z"/>
</g>
</svg>
