<svg width="24" height="13" viewBox="0 0 24 13" xmlns="http://www.w3.org/2000/svg">
<path fill-rule="evenodd" clip-rule="evenodd" d="M21.3625 9.11273C21.3625 9.11273 23.3029 10.9285 23.7829 11.7687C23.7923 11.7808 23.7996 11.7942 23.8045 11.8085C24.0001 12.1189 24.0481 12.3622 23.9521 12.5418C23.7901 12.8386 23.2417 12.9875 23.0557 13H19.6261C19.3873 13 18.8905 12.9409 18.2857 12.5452C17.8237 12.2394 17.3641 11.7357 16.9189 11.2434C16.2541 10.5123 15.6793 9.87791 15.0973 9.87791C15.0238 9.87776 14.9508 9.88929 14.8813 9.91202C14.4409 10.0439 13.8817 10.6385 13.8817 12.2223C13.8817 12.718 13.4689 13 13.1797 13H11.6089C11.0737 13 8.28732 12.8226 5.81651 10.3543C2.78891 7.33225 0.0697081 1.26998 0.0433081 1.21655C-0.125892 0.824296 0.229308 0.610548 0.613309 0.610548H4.07651C4.54091 0.610548 4.69211 0.876596 4.79771 1.11536C4.92011 1.38936 5.37371 2.48539 6.11771 3.71672C7.32252 5.72005 8.06292 6.53525 8.65452 6.53525C8.76566 6.53555 8.87493 6.5081 8.97132 6.45566C9.74412 6.05317 9.60012 3.43817 9.56412 2.89925C9.56412 2.79465 9.56292 1.73159 9.16692 1.21768C8.88372 0.849309 8.40132 0.706052 8.10972 0.653752C8.18772 0.546878 8.35332 0.383155 8.56572 0.286514C9.09492 0.0363826 10.0513 0 11.0005 0H11.5273C12.5569 0.0136435 12.8233 0.0761762 13.1977 0.165996C13.9513 0.33654 13.9657 0.799283 13.8997 2.37511C13.8805 2.82535 13.8601 3.33243 13.8601 3.92933C13.8601 4.05667 13.8541 4.19879 13.8541 4.34319C13.8313 5.15157 13.8013 6.06227 14.4037 6.43633C14.4819 6.48244 14.5721 6.50687 14.6641 6.50682C14.8729 6.50682 15.4981 6.50682 17.1937 3.74969C17.9377 2.53201 18.5137 1.09603 18.5533 0.988018C18.5869 0.927759 18.6877 0.758352 18.8101 0.690135C18.8972 0.646242 18.9947 0.624317 19.0933 0.626465H23.1673C23.6113 0.626465 23.9125 0.690135 23.9713 0.849309C24.0697 1.1074 23.9521 1.89531 22.0921 4.27838C21.7789 4.67518 21.5041 5.01854 21.2629 5.3187C19.5769 7.41525 19.5769 7.52099 21.3625 9.11273Z"/>
</svg>
