<svg width="29" height="26" viewBox="0 0 29 26" fill="none" xmlns="http://www.w3.org/2000/svg">
<path d="M16.2559 0.504308C15.9538 0.336205 15.6517 0.354883 15.3496 0.560343L6.23047 7.62069H3.22852C2.45443 7.62069 1.79362 7.85416 1.24609 8.32112C0.698568 8.78807 0.424805 9.35776 0.424805 10.0302L0.481445 15.9418C0.481445 16.6142 0.755208 17.1886 1.30273 17.6649C1.85026 18.1412 2.51107 18.3793 3.28516 18.3793H6.28711L15.3496 25.4397C15.5007 25.5517 15.6611 25.6078 15.8311 25.6078C15.8877 25.6078 15.9396 25.6031 15.9868 25.5937C16.034 25.5844 16.0812 25.5704 16.1284 25.5517C16.1756 25.533 16.2181 25.5144 16.2559 25.4957C16.4069 25.421 16.5249 25.3136 16.6099 25.1735C16.6948 25.0334 16.7373 24.8793 16.7373 24.7112V1.28879C16.7184 0.933906 16.5579 0.672412 16.2559 0.504308ZM14.9248 23.0302L7.08008 16.7263C6.92904 16.6329 6.75911 16.5862 6.57031 16.5862H3.28516C3.09635 16.5862 2.92171 16.5535 2.76123 16.4881C2.60075 16.4228 2.48275 16.3434 2.40723 16.25C2.33171 16.1566 2.29395 16.0539 2.29395 15.9418L2.2373 10.0302C2.2373 9.95546 2.2609 9.88074 2.30811 9.80603C2.35531 9.73132 2.42139 9.66595 2.50635 9.60991C2.59131 9.55388 2.69515 9.50718 2.81787 9.46982C2.94059 9.43247 3.07747 9.41379 3.22852 9.41379H6.51367C6.70247 9.41379 6.8724 9.35776 7.02344 9.24569L14.9248 2.96983V23.0302ZM24.0156 13.1681C24.0156 12.3836 23.8504 11.6505 23.52 10.9687C23.1896 10.287 22.7223 9.71731 22.1182 9.2597C21.514 8.80208 20.8438 8.51724 20.1074 8.40517C19.8431 8.34914 19.6118 8.39583 19.4136 8.54526C19.2153 8.69468 19.0973 8.8908 19.0596 9.13362C19.0218 9.37643 19.0737 9.60057 19.2153 9.80603C19.3569 10.0115 19.5505 10.1329 19.7959 10.1703C20.5133 10.2823 21.0939 10.6185 21.5376 11.1789C21.9813 11.7392 22.2031 12.4023 22.2031 13.1681C22.2031 13.8779 21.9766 14.5176 21.5234 15.0873C21.0703 15.657 20.485 16.0072 19.7676 16.1379C19.6543 16.1566 19.5457 16.2033 19.4419 16.278C19.3381 16.3527 19.2531 16.4368 19.187 16.5302C19.1209 16.6236 19.0785 16.7263 19.0596 16.8384C19.0407 16.9504 19.0407 17.0718 19.0596 17.2026C19.0973 17.408 19.2012 17.5808 19.3711 17.7209C19.541 17.861 19.7298 17.931 19.9375 17.931C19.9941 17.931 20.0508 17.9217 20.1074 17.903C21.2402 17.6789 22.1748 17.1185 22.9111 16.222C23.6475 15.3254 24.0156 14.3075 24.0156 13.1681ZM22.8262 4.93103C22.5996 4.83764 22.3683 4.84231 22.1323 4.94504C21.8963 5.04777 21.7358 5.21587 21.6509 5.44935C21.5659 5.68283 21.5754 5.91164 21.6792 6.13577C21.783 6.35991 21.9577 6.51868 22.2031 6.61207C22.8639 6.85488 23.4823 7.20043 24.0581 7.6487C24.634 8.09698 25.1201 8.60596 25.5166 9.17564C25.9131 9.74533 26.2199 10.371 26.437 11.0528C26.6541 11.7346 26.7627 12.4397 26.7627 13.1681C26.7627 14.6063 26.3426 15.9278 25.5024 17.1325C24.6623 18.3373 23.5625 19.2011 22.2031 19.7241C21.9577 19.7988 21.783 19.9483 21.6792 20.1724C21.5754 20.3965 21.5706 20.63 21.665 20.8728C21.7406 21.0409 21.8538 21.1764 22.0049 21.2791C22.1559 21.3818 22.3258 21.4332 22.5146 21.4332C22.5713 21.4332 22.6232 21.4285 22.6704 21.4192C22.7176 21.4098 22.7695 21.3958 22.8262 21.3772C24.5443 20.7421 25.932 19.6681 26.9893 18.1552C28.0465 16.6422 28.5752 14.9752 28.5752 13.1541C28.5752 11.333 28.0465 9.66595 26.9893 8.15301C25.932 6.64008 24.5443 5.56609 22.8262 4.93103Z" fill="white"/>
</svg>
