<svg width="8" height="14" viewBox="0 0 8 14" fill="none" xmlns="http://www.w3.org/2000/svg">
<path d="M7.64523 11.8546L2.93115 6.99347L7.64523 2.13239C7.75772 2.0164 7.84694 1.87869 7.90782 1.72714C7.9687 1.57559 8.00003 1.41316 8.00003 1.24912C8.00003 1.08509 7.9687 0.922656 7.90782 0.771105C7.84694 0.619554 7.75772 0.481852 7.64523 0.36586C7.53275 0.249868 7.39921 0.157858 7.25224 0.0950841C7.10528 0.0323098 6.94776 6.66393e-09 6.78868 9.07828e-09C6.6296 1.14926e-08 6.47208 0.0323098 6.32512 0.0950842C6.17815 0.157858 6.04461 0.249868 5.93213 0.36586L0.355409 6.11647C-0.11843 6.60509 -0.11843 7.39438 0.355409 7.883L5.93212 13.6336C6.04453 13.7498 6.17804 13.8419 6.32502 13.9048C6.472 13.9676 6.62956 14 6.78868 14C6.9478 14 7.10536 13.9676 7.25234 13.9048C7.39932 13.8419 7.53283 13.7498 7.64523 13.6336C8.10692 13.145 8.11907 12.3432 7.64523 11.8546Z" fill="white"/>
</svg>
