<svg width="30" height="30" viewBox="0 0 30 30" fill="none" xmlns="http://www.w3.org/2000/svg">
<path fill-rule="evenodd" clip-rule="evenodd" d="M18.5487 18.65C19.1706 18.0041 20.0034 17.6025 20.896 17.5178C21.7886 17.4332 22.682 17.6711 23.4142 18.1886C24.1465 18.706 24.6691 19.4687 24.8873 20.3384C25.1055 21.208 25.0049 22.1271 24.6037 22.929C24.2025 23.7308 23.5273 24.3624 22.7005 24.7092C21.8737 25.056 20.9499 25.0951 20.0968 24.8193C19.2436 24.5436 18.5175 23.9713 18.05 23.2062C17.5826 22.441 17.4047 21.5338 17.5487 20.6488L11.4575 17.595C10.9396 18.1355 10.2719 18.5086 9.54021 18.6664C8.80852 18.8242 8.04635 18.7594 7.3518 18.4803C6.65725 18.2013 6.06209 17.7208 5.64292 17.1007C5.22375 16.4805 4.99976 15.7492 4.99976 15.0007C4.99976 14.2521 5.22375 13.5208 5.64292 12.9006C6.06209 12.2805 6.65725 11.8 7.3518 11.521C8.04635 11.2419 8.80852 11.1771 9.54021 11.3349C10.2719 11.4927 10.9396 11.8658 11.4575 12.4063L17.5487 9.35253C17.4047 8.46755 17.5826 7.56027 18.05 6.79515C18.5175 6.03003 19.2436 5.45773 20.0968 5.18198C20.9499 4.90624 21.8737 4.94531 22.7005 5.29212C23.5273 5.63892 24.2025 6.2705 24.6037 7.07236C25.0049 7.87421 25.1055 8.79328 24.8873 9.66293C24.6691 10.5326 24.1465 11.2953 23.4142 11.8127C22.682 12.3302 21.7886 12.5681 20.896 12.4835C20.0034 12.3988 19.1706 11.9972 18.5487 11.3513L12.4525 14.3988C12.5167 14.797 12.5167 15.203 12.4525 15.6013L18.5487 18.6488V18.65ZM21.25 10C21.5815 10 21.8994 9.86833 22.1339 9.63391C22.3683 9.39949 22.5 9.08155 22.5 8.75003C22.5 8.41851 22.3683 8.10057 22.1339 7.86615C21.8994 7.63173 21.5815 7.50003 21.25 7.50003C20.9185 7.50003 20.6005 7.63173 20.3661 7.86615C20.1317 8.10057 20 8.41851 20 8.75003C20 9.08155 20.1317 9.39949 20.3661 9.63391C20.6005 9.86833 20.9185 10 21.25 10ZM21.25 22.5C21.5815 22.5 21.8994 22.3683 22.1339 22.1339C22.3683 21.8995 22.5 21.5816 22.5 21.25C22.5 20.9185 22.3683 20.6006 22.1339 20.3661C21.8994 20.1317 21.5815 20 21.25 20C20.9185 20 20.6005 20.1317 20.3661 20.3661C20.1317 20.6006 20 20.9185 20 21.25C20 21.5816 20.1317 21.8995 20.3661 22.1339C20.6005 22.3683 20.9185 22.5 21.25 22.5ZM8.74997 16.25C9.08149 16.25 9.39943 16.1183 9.63385 15.8839C9.86827 15.6495 9.99997 15.3316 9.99997 15C9.99997 14.6685 9.86827 14.3506 9.63385 14.1161C9.39943 13.8817 9.08149 13.75 8.74997 13.75C8.41845 13.75 8.10051 13.8817 7.86609 14.1161C7.63167 14.3506 7.49997 14.6685 7.49997 15C7.49997 15.3316 7.63167 15.6495 7.86609 15.8839C8.10051 16.1183 8.41845 16.25 8.74997 16.25Z" fill="#BDBDBD"/>
</svg>
