<svg width="26" height="21" viewBox="0 0 26 21" fill="none" xmlns="http://www.w3.org/2000/svg">
<path d="M20.8874 0.00344652C20.5728 0.0291718 20.2722 0.150513 20.0222 0.352658C19.7722 0.554802 19.5837 0.829004 19.4796 1.14179C19.3755 1.45458 19.3604 1.79242 19.4361 2.11407C19.5118 2.43572 19.6751 2.72726 19.9059 2.95311C20.8094 3.89991 21.5257 5.02489 22.0137 6.26337C22.5017 7.50185 22.7518 8.8294 22.7496 10.1697C22.7511 11.5099 22.5007 12.8372 22.0127 14.0756C21.5247 15.314 20.8088 16.4391 19.9059 17.3863C19.749 17.5437 19.6237 17.7324 19.5372 17.9413C19.4507 18.1503 19.4049 18.3753 19.4024 18.6031C19.3999 18.8309 19.4408 19.057 19.5226 19.268C19.6045 19.479 19.7257 19.6706 19.8791 19.8318C20.0326 19.9929 20.2151 20.1201 20.416 20.2061C20.617 20.2921 20.8322 20.335 21.0492 20.3324C21.2661 20.3298 21.4804 20.2817 21.6794 20.1908C21.8784 20.1 22.0581 19.9684 22.2079 19.8036C24.6363 17.2459 26 13.7815 26 10.1697C26 6.55796 24.6363 3.09354 22.2079 0.535819C22.0594 0.370946 21.8811 0.238839 21.6834 0.147231C21.4856 0.0556228 21.2725 0.00635395 21.0564 0.00230851C21.0001 -0.000769503 20.9437 -0.000769503 20.8874 0.00230851V0.00344652ZM4.73995 0.0375727C4.37983 0.0877258 4.04611 0.263146 3.79207 0.535819C1.36366 3.09354 0 6.55796 0 10.1697C0 13.7815 1.36366 17.2459 3.79207 19.8036C3.94192 19.9684 4.12162 20.1 4.32061 20.1908C4.5196 20.2817 4.73387 20.3298 4.95082 20.3324C5.16778 20.335 5.38304 20.2921 5.58397 20.2061C5.7849 20.1201 5.96743 19.9929 6.12085 19.8318C6.27427 19.6706 6.39548 19.479 6.47736 19.268C6.55924 19.057 6.60013 18.8309 6.59763 18.6031C6.59513 18.3753 6.5493 18.1503 6.46282 17.9413C6.37634 17.7324 6.25096 17.5437 6.09405 17.3863C5.19063 16.4395 4.47432 15.3145 3.98631 14.0761C3.4983 12.8376 3.24821 11.51 3.25043 10.1697C3.24893 8.82951 3.49934 7.50218 3.9873 6.2638C4.47527 5.02543 5.1912 3.90036 6.09405 2.95311C6.33969 2.70261 6.50369 2.37703 6.56265 2.02285C6.62161 1.66866 6.57252 1.30396 6.42238 0.980816C6.27223 0.657668 6.02872 0.392584 5.72658 0.223399C5.42445 0.054214 5.07914 -0.0104243 4.73995 0.0387101V0.0375727ZM8.87051 3.80627C8.51423 3.8465 8.18061 4.00927 7.92156 4.26925C7.13541 5.01505 6.50649 5.92525 6.07516 6.9414C5.64384 7.95755 5.41965 9.05719 5.417 10.1697C5.417 12.4994 6.35946 14.6175 7.88797 16.0713C8.04588 16.223 8.2307 16.3406 8.43187 16.4173C8.63304 16.494 8.84663 16.5283 9.06044 16.5183C9.27425 16.5083 9.48409 16.4542 9.67799 16.3591C9.87188 16.2639 10.046 16.1296 10.1905 15.9638C10.335 15.798 10.4469 15.6039 10.5199 15.3927C10.593 15.1814 10.6257 14.9571 10.6162 14.7326C10.6067 14.5081 10.5551 14.2877 10.4645 14.0841C10.3739 13.8805 10.246 13.6977 10.0881 13.546C9.63841 13.1198 9.27936 12.5988 9.03446 12.0171C8.78955 11.4353 8.66429 10.8058 8.66686 10.1697C8.66461 9.53341 8.79012 8.90376 9.0352 8.32182C9.28028 7.73988 9.63942 7.21872 10.0892 6.79233C10.3488 6.55517 10.53 6.2376 10.6067 5.88535C10.6834 5.53311 10.6517 5.1644 10.516 4.83233C10.3804 4.50026 10.1478 4.22198 9.85193 4.03758C9.55602 3.85318 9.21199 3.77219 8.86943 3.80627H8.87051ZM16.8933 3.80627C16.5711 3.82493 16.2614 3.94393 16.0038 4.14812C15.7462 4.35231 15.5523 4.63242 15.4469 4.95276C15.3415 5.27309 15.3294 5.61912 15.412 5.94675C15.4946 6.27438 15.6682 6.56875 15.9108 6.79233C16.3608 7.21849 16.7202 7.7396 16.9653 8.3216C17.2104 8.90359 17.3357 9.53335 17.3331 10.1697C17.3354 10.806 17.2099 11.4357 16.9648 12.0176C16.7197 12.5996 16.3606 13.1207 15.9108 13.5471C15.7297 13.6891 15.5789 13.8692 15.4678 14.0759C15.3568 14.2826 15.2881 14.5113 15.266 14.7475C15.2439 14.9836 15.269 15.222 15.3396 15.4474C15.4102 15.6729 15.5248 15.8803 15.6761 16.0566C15.8274 16.2329 16.0121 16.3741 16.2183 16.4712C16.4244 16.5682 16.6477 16.6191 16.8736 16.6205C17.0996 16.6219 17.3234 16.5738 17.5307 16.4792C17.7379 16.3846 17.9241 16.2457 18.0774 16.0713C18.8638 15.3255 19.493 14.4151 19.9246 13.3988C20.3561 12.3824 20.5804 11.2825 20.583 10.1697C20.587 9.05926 20.3692 7.96027 19.9436 6.94372C19.5179 5.92717 18.894 5.01568 18.112 4.26811C17.9499 4.10748 17.7581 3.98358 17.5484 3.90413C17.3388 3.82467 17.1158 3.79136 16.8933 3.80627ZM13 8.10848C12.6118 8.1087 12.2324 8.22978 11.9098 8.45641C11.5871 8.68304 11.3357 9.00504 11.1873 9.3817C11.0389 9.75836 11.0002 10.1728 11.076 10.5725C11.1519 10.9723 11.3389 11.3395 11.6135 11.6276C11.888 11.9158 12.2378 12.112 12.6185 12.1914C12.9993 12.2709 13.3939 12.23 13.7525 12.0739C14.1111 11.9179 14.4176 11.6537 14.6333 11.3148C14.8489 10.9758 14.964 10.5773 14.964 10.1697C14.9644 9.89875 14.9139 9.63037 14.8154 9.37994C14.7168 9.12952 14.5722 8.90199 14.3897 8.71039C14.2073 8.51879 13.9906 8.3669 13.7521 8.26341C13.5136 8.15993 13.258 8.10689 13 8.10734V8.10848Z" fill="white"/>
</svg>
