<svg width="222" height="21" viewBox="0 0 222 21" fill="none" xmlns="http://www.w3.org/2000/svg">
<path d="M47.0578 19.8814L52.395 19.8571L46.0109 1.84349H39.8858L33.4747 19.8571H38.8227L42.951 6.14183L47.0578 19.8814ZM85.554 19.8814V1.86777H90.5998V9.43911L96.026 1.86777H101.941L95.1167 10.594L102.132 19.8841H95.8236L90.6025 12.1428V19.8841L85.554 19.8814ZM66.229 1.86777H71.0994V12.6797L78.0609 1.86777H83.0095V19.8814H78.1526V9.08834L71.1722 19.8814H66.2317L66.229 1.86777ZM54.3566 19.8814V6.1931H50.4037V1.87587H63.3742V6.1931H59.3997V19.8814H54.3566ZM24.1549 6.16611L22.0961 12.8039H26.211L24.1549 6.16611ZM14.6786 19.8814L21.0816 1.86777H27.2093L33.5988 19.8814H28.1861L27.2093 16.7757H21.0816L20.0886 19.8814H14.6786ZM5.03498 16.2792H7.19359C8.02196 16.2792 8.64796 16.1335 9.08238 15.8475C9.5168 15.5615 9.72727 15.0623 9.72727 14.3742C9.72727 13.6862 9.51681 13.2194 9.09318 12.9388C8.66956 12.6581 8.04895 12.5017 7.2044 12.5017H5.04578L5.03498 16.2792ZM0 19.8814V1.86777H13.3132V6.185H5.03498V8.88327H7.69006C8.66395 8.88916 9.63511 8.98672 10.5907 9.17468C11.6603 9.39348 12.6467 9.90868 13.4374 10.6614C14.3368 11.4619 14.7811 12.6707 14.7703 14.2879C14.7703 16.666 13.9959 18.195 12.4471 18.875C10.9483 19.5328 9.32961 19.8736 7.69277 19.876L0 19.8814Z" fill="#003A54"/>
<path fill-rule="evenodd" clip-rule="evenodd" d="M120.155 0.333313V20.9313H222V0.333313H120.155ZM142.429 16.8753H138.816V7.46486H134.545V16.8753H130.929V4.50567H142.432L142.429 16.8753ZM161.587 16.5908L158.643 7.15187L155.691 16.5752H151.863L156.45 4.20044H160.829L165.416 16.5752L161.587 16.5908ZM193.476 13.1375C193.189 13.912 192.747 14.6254 192.175 15.2379C191.572 15.8732 190.828 16.3708 189.998 16.6942C187.964 17.4439 185.705 17.3984 183.705 16.5675C182.733 16.161 181.886 15.5224 181.245 14.7128C180.619 13.9115 180.245 12.9559 180.165 11.958H178.781V16.8727H175.16V4.50567H178.77V9.24193H180.173C180.273 8.55429 180.494 7.88785 180.826 7.27086C181.163 6.65289 181.621 6.10307 182.176 5.65158C182.779 5.15994 183.477 4.78488 184.229 4.54706C185.116 4.26889 186.045 4.13427 186.979 4.1487C188.313 4.11209 189.633 4.42988 190.791 5.06698C191.795 5.64266 192.606 6.48077 193.131 7.48297C193.644 8.47646 193.907 9.57145 193.9 10.6801C193.904 11.5158 193.762 12.3463 193.481 13.1375H193.476ZM211.22 8.59784C210.324 7.60972 209.31 7.11307 208.155 7.11307C207.546 7.10384 206.948 7.26279 206.431 7.57092C205.921 7.88004 205.515 8.32378 205.262 8.84875C204.986 9.41526 204.848 10.0343 204.858 10.6594C204.846 11.2507 204.982 11.8362 205.254 12.3667C205.511 12.8609 205.909 13.2753 206.401 13.5617C206.933 13.8597 207.541 14.0109 208.158 13.9989C209.286 13.9989 210.316 13.5566 211.223 12.6538V16.1717C210.184 16.8117 208.966 17.1329 207.731 17.0926C206.829 17.099 205.934 16.9391 205.095 16.6218C204.296 16.3252 203.573 15.8679 202.974 15.2807C202.375 14.6935 201.914 13.99 201.622 13.2177C201.288 12.3664 201.123 11.4629 201.134 10.5534C201.119 9.61808 201.296 8.68904 201.655 7.81924C201.966 7.0545 202.441 6.36048 203.048 5.78148C203.655 5.20247 204.382 4.75122 205.181 4.45652C205.98 4.16532 206.828 4.018 207.683 4.02196C208.305 4.0215 208.924 4.10244 209.523 4.26252C210.131 4.41611 210.707 4.66899 211.226 5.01007L211.22 8.59784Z" fill="#003A54"/>
<path fill-rule="evenodd" clip-rule="evenodd" d="M188.487 7.83448C188 7.55437 187.449 7.40694 186.888 7.40694C186.327 7.40694 185.775 7.55437 185.289 7.83448C184.785 8.13553 184.378 8.57468 184.115 9.09997C183.81 9.73069 183.662 10.426 183.684 11.1264C183.658 11.8329 183.809 12.5347 184.121 13.169C184.379 13.6941 184.785 14.1322 185.289 14.429C185.774 14.7139 186.327 14.8622 186.889 14.8581C187.316 14.8638 187.739 14.7787 188.13 14.6084C188.521 14.4382 188.872 14.1866 189.158 13.8705C189.782 13.2202 190.092 12.3109 190.092 11.1237C190.11 10.4224 189.961 9.72695 189.658 9.09457C189.395 8.57206 188.988 8.13506 188.487 7.83448Z" fill="#003A54"/>
</svg>
