<svg width="7" height="12" viewBox="0 0 7 12" fill="none" xmlns="http://www.w3.org/2000/svg">
<path d="M0.310447 1.83895L4.43527 6.0056L0.310447 10.1722C0.212023 10.2717 0.13395 10.3897 0.0806833 10.5196C0.0274167 10.6495 1.54814e-08 10.7887 1.27677e-08 10.9293C1.0054e-08 11.0699 0.0274167 11.2092 0.0806833 11.3391C0.13395 11.469 0.212023 11.587 0.310447 11.6864C0.408871 11.7858 0.525717 11.8647 0.654314 11.9185C0.782911 11.9723 0.92074 12 1.05993 12C1.19912 12 1.33695 11.9723 1.46555 11.9185C1.59415 11.8647 1.71099 11.7858 1.80942 11.6864L6.68904 6.75731C7.10365 6.3385 7.10365 5.66196 6.68904 5.24314L1.80942 0.31405C1.71107 0.214497 1.59424 0.135516 1.46564 0.0816269C1.33703 0.0277386 1.19916 1.42999e-08 1.05993 1.26396e-08C0.9207 1.09792e-08 0.782834 0.0277386 0.654228 0.0816269C0.525621 0.135516 0.408798 0.214497 0.310447 0.31405C-0.0935305 0.732862 -0.104161 1.42014 0.310447 1.83895Z" fill="#EF4136"/>
</svg>
